<svg width="19" height="18" viewBox="0 0 19 18" fill="none" xmlns="http://www.w3.org/2000/svg">
<g clip-path="url(#clip0_702_13)">
<path d="M18.1445 9.20768C18.1445 8.59588 18.0949 7.98078 17.9891 7.37891H9.5V10.8446H14.3613C14.1596 11.9624 13.5114 12.9512 12.5623 13.5795V15.8283H15.4625C17.1656 14.2608 18.1445 11.9459 18.1445 9.20768Z" fill="#3548FE"/>
<path d="M9.49966 18.002C11.927 18.002 13.974 17.205 15.4655 15.8293L12.5652 13.5805C11.7583 14.1295 10.7166 14.4403 9.50296 14.4403C7.15499 14.4403 5.16418 12.8563 4.44987 10.7266H1.45703V13.0448C2.98487 16.0839 6.09675 18.002 9.49966 18.002Z" fill="#34A853"/>
<path d="M4.4469 10.725C4.06991 9.60727 4.06991 8.39691 4.4469 7.27914V4.96094H1.45738C0.180875 7.50402 0.180875 10.5002 1.45738 13.0432L4.4469 10.725Z" fill="#FBBC04"/>
<path d="M9.4999 3.56224C10.783 3.5424 12.0231 4.02523 12.9524 4.9115L15.5219 2.34196C13.8949 0.814129 11.7354 -0.0258495 9.4999 0.000606499C6.097 0.000606499 2.98511 1.91867 1.45728 4.96111L4.4468 7.27931C5.15781 5.1463 7.15193 3.56224 9.4999 3.56224Z" fill="#FF363A"/>
</g>
<defs>
<clipPath id="clip0_702_13">
<rect width="18" height="18" fill="white" transform="translate(0.5)"/>
</clipPath>
</defs>
</svg>
