<?xml version="1.0" standalone="no"?>
<!DOCTYPE svg PUBLIC "-//W3C//DTD SVG 20010904//EN"
 "http://www.w3.org/TR/2001/REC-SVG-20010904/DTD/svg10.dtd">
<svg version="1.0" xmlns="http://www.w3.org/2000/svg"
 width="2144.000000pt" height="2144.000000pt" viewBox="0 0 2144.000000 2144.000000"
 preserveAspectRatio="xMidYMid meet">
<metadata>
Created by potrace 1.14, written by Peter Selinger 2001-2017
</metadata>
<g transform="translate(0.000000,2144.000000) scale(0.100000,-0.100000)"
fill="#000000" stroke="none">
<path d="M4318 14725 c-3 -3 -58 -7 -124 -10 -113 -5 -150 -7 -289 -20 -142
-14 -304 -34 -400 -52 -16 -3 -39 -7 -50 -8 -22 -3 -65 -12 -105 -20 -14 -3
-38 -8 -55 -11 -16 -2 -48 -10 -70 -16 -22 -5 -51 -12 -65 -15 -14 -2 -68 -16
-120 -30 -52 -14 -102 -27 -110 -28 -8 -2 -16 -4 -17 -5 -2 -2 -6 -3 -10 -5
-10 -2 -10 -2 -183 -59 -80 -27 -158 -54 -175 -61 -16 -8 -59 -26 -95 -40
-145 -60 -361 -164 -372 -180 -4 -5 -8 -7 -8 -2 0 4 -18 -4 -40 -18 -22 -14
-44 -25 -50 -25 -5 0 -10 -4 -10 -10 0 -5 -5 -10 -10 -10 -6 0 -36 -16 -66
-35 -30 -19 -59 -35 -64 -35 -6 0 -10 -4 -10 -10 0 -5 -5 -10 -10 -10 -13 0
-164 -100 -168 -112 -2 -4 -8 -8 -13 -8 -7 0 -87 -57 -164 -117 -148 -116
-383 -342 -504 -483 -35 -41 -68 -76 -72 -78 -5 -2 -9 -10 -9 -17 0 -7 -4 -15
-9 -17 -21 -7 -191 -247 -278 -393 -29 -49 -58 -97 -63 -105 -48 -75 -225
-470 -233 -520 -2 -8 -8 -24 -14 -35 -22 -42 -127 -424 -118 -433 2 -2 0 -12
-5 -22 -5 -9 -12 -32 -15 -51 -3 -19 -8 -41 -10 -49 -2 -8 -7 -31 -10 -50 -17
-120 -23 -155 -25 -155 0 0 -3 -20 -4 -45 -2 -25 -7 -65 -10 -90 -11 -77 -30
-394 -27 -437 1 -16 1 -26 2 -138 0 -99 7 -252 14 -330 2 -27 7 -79 10 -115 3
-36 8 -76 10 -90 3 -14 8 -45 11 -70 3 -25 7 -56 10 -70 3 -14 7 -38 10 -55 4
-26 31 -160 38 -190 1 -5 8 -37 15 -70 7 -33 17 -68 22 -77 5 -10 12 -34 15
-54 3 -20 12 -55 21 -77 8 -23 16 -49 18 -57 8 -33 78 -226 86 -236 5 -6 10
-19 12 -30 5 -31 129 -289 182 -379 19 -33 38 -67 42 -75 3 -8 41 -66 82 -129
42 -63 81 -122 86 -130 6 -9 12 -18 15 -21 3 -3 34 -43 70 -90 35 -47 69 -90
75 -96 5 -6 35 -40 65 -75 121 -140 322 -332 475 -453 28 -22 55 -44 60 -48 6
-5 28 -22 50 -38 22 -16 45 -33 50 -38 6 -4 57 -38 115 -76 58 -38 116 -77
130 -86 14 -9 45 -28 70 -42 25 -14 63 -35 85 -48 52 -30 332 -170 339 -170 3
0 29 -11 58 -24 29 -13 103 -43 163 -65 61 -23 119 -46 130 -51 35 -15 312
-97 361 -106 15 -3 31 -7 36 -10 4 -3 16 -7 25 -9 10 -2 52 -11 93 -20 110
-25 195 -42 250 -50 14 -3 36 -7 49 -9 14 -3 47 -8 75 -11 28 -3 58 -8 66 -10
8 -3 40 -7 70 -10 30 -3 66 -7 80 -10 14 -2 55 -6 93 -9 37 -3 95 -8 130 -11
34 -3 110 -8 170 -10 59 -2 112 -7 117 -10 6 -3 10 -1 10 5 0 7 6 8 18 2 9 -4
33 -7 52 -5 19 1 40 3 45 3 6 0 62 -2 125 -3 63 -2 121 1 128 6 7 6 12 6 12
-1 0 -6 13 -7 35 -2 21 5 35 4 35 -2 0 -5 5 -6 11 -3 5 4 45 9 87 10 105 5
227 14 292 21 30 4 69 8 85 9 69 7 175 21 235 32 14 2 39 6 55 9 17 2 53 8 80
13 28 5 68 13 90 16 22 4 47 11 56 16 9 4 18 6 21 4 4 -5 237 52 353 86 70 21
338 112 385 132 14 6 27 11 30 12 3 0 26 10 52 22 25 12 55 24 66 27 11 4 51
22 89 40 37 18 78 36 91 40 12 4 22 12 22 17 0 5 7 9 15 9 8 0 51 20 95 44 44
25 80 42 80 38 0 -4 4 -2 8 4 4 6 27 22 52 36 122 68 342 212 348 229 2 5 8 9
13 9 8 0 173 126 216 165 6 5 42 37 79 70 90 80 217 207 284 285 30 35 60 68
65 74 9 10 73 88 102 126 46 59 88 118 145 205 67 102 77 119 143 240 63 116
65 120 65 133 0 6 5 12 11 12 5 0 7 5 4 10 -3 6 -1 10 4 10 6 0 10 3 9 8 -1 4
11 34 26 67 16 33 29 66 29 73 0 6 4 12 9 12 4 0 8 8 8 18 0 9 6 28 13 42 15
30 61 155 57 155 -1 0 5 18 14 40 14 37 40 125 51 171 2 11 9 37 15 59 6 22
13 49 15 60 3 11 12 52 20 90 15 68 23 108 30 164 2 14 4 26 5 26 1 0 3 9 4
20 2 11 7 45 11 75 4 30 8 64 9 75 1 20 -7 20 -1064 20 -845 0 -1065 -3 -1066
-12 -1 -7 -2 -14 -4 -15 -1 -2 -3 -11 -5 -22 -15 -81 -80 -287 -104 -334 -20
-37 -61 -129 -61 -136 0 -4 -7 -14 -15 -23 -8 -8 -13 -19 -10 -24 4 -5 1 -9
-4 -9 -6 0 -11 -5 -11 -10 0 -10 -48 -89 -60 -100 -4 -3 -16 -21 -28 -40 -11
-20 -30 -47 -42 -60 -110 -130 -134 -156 -211 -225 -43 -38 -128 -106 -154
-123 -60 -37 -81 -52 -92 -61 -40 -35 -407 -201 -445 -201 -7 0 -26 -7 -42
-15 -16 -9 -31 -13 -34 -10 -3 3 -10 1 -16 -4 -6 -5 -47 -17 -91 -26 -44 -10
-84 -20 -90 -21 -5 -1 -28 -5 -50 -9 -22 -4 -44 -9 -49 -12 -5 -3 -23 -7 -40
-8 -33 -3 -115 -13 -156 -20 -84 -13 -227 -19 -460 -19 -237 0 -307 3 -430 20
-19 3 -42 5 -50 6 -50 2 -246 43 -355 73 -176 48 -297 98 -517 212 -15 8 -30
19 -34 24 -3 6 -16 14 -28 19 -42 16 -230 164 -311 245 -105 105 -175 189
-248 300 -62 95 -177 320 -177 348 0 9 -4 18 -9 21 -6 4 -28 65 -37 106 0 3
-4 12 -7 20 -11 27 -55 205 -62 251 -3 24 -9 58 -12 74 -35 190 -39 684 -7
850 2 11 7 40 10 65 3 25 21 104 40 175 18 72 36 139 39 150 2 11 12 38 21 60
9 22 20 49 24 60 4 11 15 36 24 57 9 20 16 38 16 41 0 17 177 316 200 337 3 3
18 23 34 44 16 22 44 55 63 73 18 19 33 37 33 39 0 4 96 96 140 134 14 12 35
30 48 41 12 10 27 19 32 19 6 0 10 3 10 8 0 4 17 18 38 32 20 14 39 27 42 30
8 8 40 27 135 79 50 27 96 54 102 60 7 6 14 11 15 11 5 -2 48 16 108 43 113
51 363 128 495 151 17 3 39 8 50 10 41 8 101 17 140 21 22 2 72 8 110 12 90
10 556 10 660 0 107 -11 144 -15 180 -22 87 -15 153 -27 175 -32 14 -3 34 -7
45 -8 11 -2 47 -11 79 -20 32 -9 64 -18 70 -19 23 -4 210 -69 234 -82 14 -7
29 -11 34 -8 4 3 8 0 8 -5 0 -6 5 -11 10 -11 13 0 177 -80 239 -116 278 -162
543 -433 670 -686 12 -24 26 -50 31 -58 14 -21 34 -73 32 -82 -1 -5 3 -8 10
-8 6 0 8 -3 5 -7 -4 -3 -3 -11 2 -17 10 -13 71 -190 77 -226 3 -14 7 -32 10
-40 4 -8 8 -28 10 -44 2 -17 8 -32 13 -35 7 -5 2094 -7 2125 -2 4 0 6 7 3 15
-3 8 -9 41 -12 73 -4 32 -9 69 -11 83 -3 14 -7 41 -10 60 -3 19 -7 44 -10 55
-3 11 -7 34 -10 50 -33 190 -174 637 -237 750 -6 11 -12 22 -12 25 0 3 -14 32
-29 65 -16 33 -28 64 -27 68 0 4 -6 10 -14 13 -8 4 -15 11 -15 18 0 11 -5 22
-60 121 -43 77 -200 310 -239 355 -17 19 -31 38 -31 41 0 3 -8 15 -17 26 -35
41 -98 116 -118 141 -37 47 -290 298 -355 353 -36 30 -67 57 -70 60 -6 7 -98
78 -134 104 -16 11 -33 25 -40 31 -22 21 -253 172 -349 228 -201 118 -504 258
-737 341 -97 35 -112 39 -132 44 -4 1 -27 9 -50 17 -54 19 -294 84 -368 99 -8
2 -17 4 -20 5 -3 1 -8 2 -11 2 -3 0 -23 4 -45 9 -21 5 -61 14 -89 19 -27 5
-63 12 -80 15 -16 4 -43 8 -60 10 -16 2 -30 4 -30 5 0 1 -11 3 -25 4 -14 1
-45 6 -70 10 -25 4 -61 9 -80 11 -19 2 -35 4 -35 5 0 1 -22 3 -49 5 -27 2 -73
6 -101 10 -78 9 -167 15 -288 19 -60 3 -111 7 -114 10 -3 2 -15 1 -28 -4 -13
-5 -26 -6 -29 -2 -10 9 -317 9 -344 0 -15 -5 -21 -4 -17 2 6 10 2 14 -7 5z"/>
<path d="M9978 14562 c-10 -2 -18 -7 -19 -10 -5 -36 -2 -7657 3 -7665 4 -7 8
-8 8 -4 0 4 9 3 19 -3 14 -7 22 -7 26 0 4 6 11 7 17 4 16 -10 51 -11 70 -2 10
5 19 4 23 -2 4 -6 13 -7 24 -1 10 6 23 6 31 1 8 -5 18 -6 23 -3 12 7 87 10 87
3 0 -6 101 -2 107 4 3 3 16 1 29 -4 14 -6 24 -6 24 0 0 5 12 5 30 0 18 -5 32
-5 35 1 4 5 14 5 25 -1 12 -7 27 -7 44 0 16 6 26 6 26 0 0 -6 9 -6 25 0 15 6
26 6 30 0 4 -6 13 -7 23 -1 17 8 49 7 59 -3 3 -3 14 -1 24 4 12 7 20 7 24 0 4
-7 12 -7 24 0 10 5 21 7 24 4 9 -9 68 -11 73 -2 3 4 13 4 23 -1 10 -6 23 -6
31 -1 8 5 18 6 24 3 12 -8 112 -6 126 2 5 3 10 2 10 -4 0 -7 8 -7 25 -1 14 5
25 6 25 1 0 -5 16 -5 35 -1 19 4 35 5 35 1 0 -7 100 -4 107 3 3 3 16 1 29 -4
14 -6 24 -6 24 0 0 5 12 5 30 0 18 -5 32 -5 36 1 3 6 12 6 22 0 9 -5 26 -5 39
0 13 5 25 4 28 -1 3 -6 15 -6 30 0 15 6 27 6 30 0 4 -6 13 -7 24 -1 10 6 23 6
31 1 8 -5 19 -5 25 0 6 5 17 5 25 0 8 -5 21 -5 30 0 9 5 22 5 28 1 7 -4 33 -5
57 -1 25 4 45 3 45 -1 0 -5 11 -4 24 1 17 6 26 5 28 -2 3 -7 9 -5 18 4 13 13
15 387 15 2892 0 1583 2 2879 6 2881 3 2 6 -1 6 -8 1 -10 98 -237 138 -322 8
-16 29 -64 46 -105 17 -41 42 -99 55 -128 13 -29 24 -55 24 -58 0 -2 18 -43
40 -90 22 -47 40 -88 40 -90 0 -2 11 -27 24 -56 13 -29 61 -138 106 -243 45
-104 90 -208 100 -230 65 -148 105 -241 105 -245 1 -3 8 -21 17 -40 9 -19 26
-57 38 -85 12 -27 30 -68 40 -90 65 -149 105 -241 105 -245 1 -3 9 -20 18 -37
10 -18 17 -34 17 -35 -1 -2 11 -30 25 -63 15 -33 30 -69 35 -80 4 -11 21 -49
37 -85 17 -36 36 -82 44 -102 7 -21 16 -38 19 -38 4 0 7 -6 7 -13 0 -6 16 -48
35 -92 20 -44 59 -134 88 -200 29 -66 63 -144 76 -173 13 -29 24 -55 24 -58 0
-2 18 -43 40 -90 22 -47 40 -88 40 -90 0 -4 100 -233 136 -312 13 -29 24 -55
24 -57 0 -2 11 -28 24 -57 38 -85 61 -136 110 -253 26 -60 53 -123 61 -140 7
-16 23 -52 35 -80 12 -27 28 -63 35 -80 20 -46 41 -96 63 -145 11 -25 34 -79
52 -120 36 -85 61 -141 96 -218 13 -29 24 -54 24 -57 0 -2 14 -34 32 -72 17
-37 31 -74 31 -80 0 -7 4 -13 9 -13 4 0 8 -6 8 -14 0 -8 7 -27 15 -43 19 -36
75 -163 75 -169 0 -3 10 -26 21 -52 49 -108 68 -150 94 -212 15 -36 36 -85 47
-110 11 -25 27 -61 35 -80 9 -19 24 -53 33 -75 10 -22 28 -64 41 -93 13 -31
27 -51 34 -48 6 2 18 0 25 -4 7 -5 23 -5 35 0 12 5 28 4 35 0 8 -5 21 -5 30 0
9 5 23 4 32 -1 10 -6 19 -6 22 0 4 6 18 6 36 1 18 -5 32 -5 35 1 4 5 13 5 24
0 10 -6 23 -6 31 -1 8 5 18 6 24 3 12 -8 112 -6 126 2 5 3 10 2 10 -4 0 -7 8
-7 25 -1 14 5 25 6 25 1 0 -5 16 -5 35 -1 19 4 35 5 35 1 0 -7 100 -4 107 3 3
3 16 1 29 -4 14 -6 24 -6 24 0 0 5 12 5 30 0 18 -5 32 -5 35 1 4 5 14 5 26 -1
13 -8 19 -7 19 0 0 7 6 8 18 1 10 -5 24 -6 32 -1 7 4 24 4 37 -1 14 -5 23 -5
23 1 0 5 9 6 22 1 13 -4 35 -5 50 0 16 4 28 4 28 -1 0 -6 10 -6 25 0 14 5 27
5 30 0 3 -5 18 -5 33 0 16 4 35 4 43 -1 8 -4 21 -4 29 1 7 4 24 4 37 -1 14 -5
23 -5 23 1 0 5 9 6 22 1 13 -4 35 -5 50 0 16 4 28 4 28 -1 0 -6 10 -6 25 0 13
5 26 6 29 1 3 -4 28 -5 56 -1 27 4 50 4 50 1 0 -7 101 -4 107 3 3 3 16 1 29
-4 14 -6 24 -6 24 0 0 5 12 5 30 0 18 -5 32 -5 35 1 4 5 14 5 25 -1 12 -7 27
-7 44 0 16 6 26 6 26 0 0 -6 9 -6 25 0 15 6 26 6 30 0 4 -6 13 -7 23 -1 17 8
49 7 59 -3 3 -3 14 -1 24 4 12 7 20 7 24 0 4 -6 13 -7 23 -1 10 5 24 6 33 1
24 -14 32 -2 78 105 23 55 54 124 67 153 13 29 24 54 24 57 0 2 14 34 31 71
17 37 32 72 34 78 2 12 21 56 61 144 13 29 36 80 50 115 14 34 31 68 36 75 6
6 8 12 5 12 -3 0 8 30 24 68 17 37 39 85 48 107 10 22 28 65 41 95 12 30 32
75 43 100 12 25 22 47 22 50 2 6 28 64 57 130 11 24 21 49 22 56 1 7 7 18 13
25 6 8 11 16 11 19 1 9 22 63 42 105 19 41 49 113 49 118 0 1 15 36 34 77 19
41 83 188 142 325 59 138 117 270 128 295 11 25 22 50 23 55 1 6 15 39 32 75
16 36 44 101 62 145 19 44 38 83 44 87 6 4 8 8 4 8 -5 0 115 290 156 375 8 17
79 179 156 360 78 182 145 335 150 340 5 6 9 15 10 20 3 14 19 57 30 80 42 91
67 154 62 159 -3 3 0 6 6 6 7 0 12 5 12 11 0 10 34 91 82 199 12 25 24 54 29
65 4 11 17 40 27 65 11 25 30 70 43 100 13 30 25 57 28 60 4 3 7 12 9 20 2 8
10 31 18 50 9 19 25 55 36 80 10 25 30 69 44 98 13 29 24 59 24 67 0 8 5 15
10 15 6 0 10 7 10 15 0 8 4 23 10 33 5 9 23 51 41 92 17 41 40 94 50 117 11
23 19 47 19 52 0 6 5 11 10 11 6 0 9 3 8 8 -3 9 131 323 143 337 5 5 9 15 9
22 0 7 15 45 33 85 45 98 51 111 48 123 -2 6 1 6 5 2 11 -11 11 -407 1 -407
-5 0 -5 -5 -1 -12 10 -17 11 -468 1 -468 -5 0 -5 -5 -1 -12 10 -17 11 -468 1
-468 -5 0 -5 -5 -1 -12 11 -17 11 -148 1 -148 -5 0 -5 -5 -1 -12 10 -17 11
-468 1 -468 -5 0 -5 -5 -1 -12 10 -17 11 -468 1 -468 -5 0 -5 -5 -1 -12 10
-17 11 -468 1 -468 -5 0 -5 -5 -1 -12 10 -17 11 -468 1 -468 -5 0 -5 -5 -1
-12 10 -17 11 -468 1 -468 -5 0 -5 -5 -1 -12 11 -17 11 -148 1 -148 -5 0 -5
-5 -1 -12 10 -17 11 -468 1 -468 -5 0 -5 -5 -1 -12 10 -17 11 -468 1 -468 -5
0 -5 -5 -1 -12 10 -17 11 -468 1 -468 -5 0 -5 -6 -1 -12 5 -7 8 -71 9 -143 l0
-130 26 -1 c14 -1 30 -4 35 -7 6 -3 16 -2 24 3 7 4 24 4 37 -1 14 -5 23 -5 23
1 0 5 9 6 22 1 13 -4 35 -5 50 0 16 4 28 4 28 -1 0 -6 10 -6 25 0 14 5 27 5
30 0 3 -5 18 -5 33 0 16 4 35 4 43 -1 8 -4 21 -4 29 1 7 4 24 4 37 -1 14 -5
23 -5 23 1 0 5 9 6 22 1 13 -4 35 -5 50 0 16 4 28 4 28 -1 0 -6 10 -6 25 0 13
5 26 6 29 1 3 -4 28 -5 56 -1 27 4 50 4 50 1 0 -7 101 -4 107 3 3 3 16 1 29
-4 14 -6 24 -6 24 0 0 5 12 5 30 0 18 -5 32 -5 35 1 4 5 14 5 25 -1 12 -7 27
-7 44 0 16 6 26 6 26 0 0 -6 9 -6 25 0 15 6 26 6 30 0 4 -6 13 -7 23 -1 17 8
49 7 59 -3 3 -3 14 -1 24 4 12 7 20 7 24 0 4 -7 12 -7 24 0 10 5 21 7 24 4 9
-9 68 -11 73 -2 3 4 13 4 23 -1 10 -6 23 -6 31 -1 8 5 18 6 24 3 12 -8 112 -6
126 2 5 3 10 2 10 -4 0 -7 8 -7 25 -1 14 5 25 6 25 1 0 -5 16 -5 35 -1 19 4
35 5 35 1 0 -7 100 -4 107 3 3 3 16 1 29 -4 14 -6 24 -6 24 0 0 5 12 5 30 0
18 -5 32 -5 35 1 4 5 14 5 26 -1 13 -8 19 -7 19 0 0 7 6 8 18 2 9 -5 23 -7 30
-5 9 4 12 781 12 3839 l0 3835 -22 8 c-13 5 -27 5 -32 0 -5 -4 -16 -4 -26 1
-9 5 -22 5 -30 0 -7 -4 -24 -4 -37 1 -14 5 -23 5 -23 -1 0 -5 -9 -6 -22 -1
-13 4 -35 5 -50 0 -16 -4 -28 -4 -28 1 0 6 -10 6 -25 0 -13 -5 -26 -6 -29 -2
-5 9 -70 7 -85 -2 -5 -4 -12 -2 -16 4 -4 6 -13 7 -23 1 -11 -6 -24 -6 -34 0
-9 5 -19 5 -22 0 -6 -9 -54 -7 -63 3 -3 3 -14 1 -24 -4 -12 -7 -20 -7 -24 0
-4 6 -13 7 -24 1 -9 -5 -23 -6 -31 -1 -7 4 -24 4 -36 0 -14 -6 -26 -5 -29 0
-4 6 -13 7 -23 1 -11 -6 -24 -6 -34 0 -11 6 -19 6 -23 -1 -4 -7 -12 -7 -25 0
-12 7 -27 7 -44 0 -16 -6 -26 -6 -26 0 0 6 -9 6 -25 0 -15 -6 -26 -6 -30 0 -4
6 -14 6 -28 -2 -12 -6 -24 -10 -27 -9 -3 2 -12 7 -21 11 -8 5 -21 5 -29 0 -7
-4 -24 -4 -37 1 -14 5 -23 5 -23 -1 0 -5 -9 -6 -22 -1 -13 4 -35 5 -50 0 -16
-4 -28 -4 -28 1 0 6 -10 6 -25 0 -13 -5 -27 -6 -29 -1 -3 4 -26 5 -51 1 -25
-4 -48 -3 -51 1 -2 5 -16 4 -29 -1 -15 -6 -27 -6 -30 1 -4 6 -13 6 -23 0 -9
-5 -26 -5 -39 0 -14 5 -23 5 -23 -1 0 -6 -9 -6 -23 -1 -13 5 -30 5 -38 1 -8
-5 -21 -5 -28 -1 -7 5 -30 5 -52 1 -21 -4 -39 -5 -39 -1 0 7 -100 4 -107 -3
-3 -3 -16 -1 -29 4 -14 6 -24 6 -24 0 0 -5 -12 -5 -30 0 -18 5 -32 5 -35 -1
-4 -5 -14 -5 -25 1 -12 7 -27 7 -44 0 -16 -6 -26 -6 -26 0 0 6 -9 6 -25 0 -15
-6 -26 -6 -30 0 -4 6 -13 7 -23 1 -17 -8 -49 -7 -59 3 -3 3 -14 1 -24 -4 -12
-7 -20 -7 -24 0 -4 6 -13 7 -24 1 -9 -5 -23 -6 -31 -1 -7 4 -24 4 -36 0 -14
-6 -26 -5 -29 0 -4 6 -13 7 -23 1 -11 -6 -24 -6 -34 0 -11 6 -19 6 -23 -1 -4
-7 -12 -7 -25 0 -12 7 -27 7 -44 0 -16 -6 -26 -6 -26 0 0 6 -9 6 -25 0 -15 -6
-26 -6 -30 0 -4 7 -13 6 -25 0 -12 -6 -21 -7 -25 0 -4 6 -15 6 -30 0 -16 -6
-25 -6 -25 0 0 6 -9 6 -25 0 -15 -6 -26 -6 -30 0 -4 6 -13 7 -23 1 -17 -8 -49
-7 -59 3 -3 3 -14 1 -24 -4 -12 -7 -20 -7 -24 0 -4 6 -13 7 -24 1 -9 -5 -23
-6 -31 -1 -7 4 -24 4 -36 0 -14 -6 -26 -5 -29 0 -4 6 -13 7 -23 1 -11 -6 -24
-6 -34 0 -11 6 -19 6 -23 -1 -4 -7 -12 -7 -25 0 -12 7 -27 7 -44 0 -16 -6 -26
-6 -26 0 0 6 -9 6 -25 0 -15 -6 -26 -6 -30 1 -4 5 -13 6 -22 0 -9 -4 -24 -6
-33 -4 -13 4 -26 -17 -59 -99 -24 -57 -49 -116 -56 -133 -49 -114 -95 -232
-95 -242 0 -7 -4 -13 -10 -13 -5 0 -10 -7 -10 -15 0 -8 -9 -34 -19 -58 -10
-23 -47 -109 -81 -192 -34 -82 -69 -166 -78 -185 -9 -19 -17 -40 -18 -46 -1
-6 -9 -27 -17 -45 -9 -19 -28 -63 -42 -99 -14 -36 -32 -78 -40 -95 -7 -16 -45
-109 -85 -205 -39 -96 -77 -188 -85 -205 -7 -16 -23 -54 -35 -84 -11 -30 -30
-74 -41 -97 -10 -24 -19 -45 -19 -49 0 -3 -9 -27 -21 -53 -64 -144 -179 -427
-179 -439 0 -7 -5 -13 -10 -13 -6 0 -9 -3 -8 -7 1 -9 -5 -25 -33 -90 -11 -23
-19 -44 -19 -47 0 -2 -10 -26 -22 -53 -11 -26 -22 -53 -23 -58 -2 -6 -12 -31
-23 -56 -11 -24 -24 -57 -27 -72 -4 -15 -11 -27 -16 -27 -5 0 -9 -6 -9 -13 0
-8 -32 -90 -71 -183 -39 -93 -71 -175 -72 -181 0 -7 -4 -13 -9 -13 -4 0 -8 -4
-8 -9 0 -5 -5 -22 -12 -38 -6 -15 -12 -30 -13 -33 -5 -15 -27 -69 -39 -95 -8
-16 -33 -77 -56 -135 -23 -58 -48 -118 -56 -135 -23 -52 -264 -635 -264 -640
0 -2 -11 -28 -24 -57 -13 -29 -31 -73 -41 -98 -10 -25 -26 -63 -36 -85 -9 -22
-60 -146 -113 -275 -53 -129 -104 -251 -113 -270 -9 -19 -16 -41 -16 -47 0 -7
-4 -13 -9 -13 -4 0 -8 -4 -8 -10 0 -9 -106 -271 -137 -339 -8 -18 -16 -39 -18
-45 -1 -6 -12 -33 -24 -61 l-23 -50 -25 55 c-14 30 -26 61 -26 68 0 6 -4 12
-9 12 -4 0 -8 5 -8 10 0 6 -21 61 -47 123 -26 62 -48 114 -48 117 0 3 -7 21
-16 40 -17 36 -57 130 -129 305 -46 112 -52 125 -73 175 -18 41 -40 93 -42
100 -1 3 -9 23 -19 45 -10 22 -27 63 -38 90 -11 28 -25 61 -31 75 -6 14 -11
27 -12 30 -1 3 -9 23 -19 45 -10 22 -27 63 -38 90 -11 28 -25 61 -31 75 -6 14
-11 27 -12 30 -1 3 -9 23 -19 45 -10 22 -24 56 -31 76 -7 20 -18 45 -24 55
-10 18 -66 150 -70 166 -2 10 -29 75 -46 113 -8 17 -48 113 -90 215 -42 102
-84 201 -92 220 -28 65 -32 75 -73 175 -55 133 -55 133 -79 187 -12 26 -21 50
-21 53 0 3 -9 27 -21 53 -12 26 -27 61 -34 77 -12 25 -20 45 -30 75 -3 7 -34
79 -50 115 -7 17 -34 82 -60 145 -26 63 -55 133 -65 155 -9 22 -31 74 -49 115
-18 41 -34 80 -35 85 -2 6 -8 21 -13 35 -6 14 -23 54 -37 90 -15 36 -35 83
-45 105 -10 22 -33 78 -52 125 -19 47 -37 87 -41 88 -5 2 -8 10 -8 17 0 7 -10
35 -22 62 -11 26 -22 53 -24 58 -1 6 -10 28 -19 50 -23 53 -38 89 -40 95 -3 9
-22 53 -47 110 -14 30 -25 57 -25 60 -1 3 -8 21 -17 40 -8 19 -45 107 -81 195
-37 88 -75 179 -86 202 -10 24 -19 45 -19 47 0 2 -8 21 -17 42 -9 22 -17 41
-18 44 0 5 -85 207 -110 265 -8 17 -32 75 -55 130 -55 131 -66 148 -88 136
-10 -5 -24 -6 -30 -2 -7 4 -33 5 -57 1 -25 -4 -45 -4 -45 -1 0 7 -100 4 -107
-3 -3 -3 -16 -1 -29 4 -14 6 -24 6 -24 0 0 -5 -12 -5 -30 0 -18 5 -32 5 -36
-1 -3 -6 -12 -6 -22 0 -9 5 -26 5 -39 0 -13 -5 -25 -4 -28 1 -3 6 -15 6 -30 0
-15 -6 -27 -6 -30 1 -4 6 -13 6 -23 0 -9 -5 -26 -5 -39 0 -14 5 -23 5 -23 -1
0 -6 -9 -6 -23 -1 -13 5 -30 5 -37 1 -8 -5 -20 -5 -28 -1 -8 4 -32 5 -53 1
-21 -4 -39 -5 -39 -1 0 7 -100 4 -107 -3 -3 -3 -16 -1 -29 4 -14 6 -24 6 -24
0 0 -5 -12 -5 -30 0 -18 5 -32 5 -35 -1 -4 -5 -14 -5 -26 1 -13 8 -19 7 -19 0
0 -7 -6 -8 -18 -1 -10 5 -24 6 -32 1 -7 -4 -24 -4 -37 1 -14 5 -23 5 -23 -1 0
-5 -9 -6 -22 -1 -13 4 -35 5 -50 0 -16 -4 -28 -4 -28 1 0 6 -10 6 -25 0 -13
-5 -26 -6 -29 -2 -5 9 -70 7 -85 -2 -5 -4 -12 -2 -16 4 -4 6 -13 7 -23 1 -11
-6 -24 -6 -34 0 -9 5 -19 5 -22 0 -6 -9 -54 -7 -63 3 -3 3 -14 1 -24 -4 -12
-7 -20 -7 -24 0 -4 6 -13 7 -24 1 -9 -5 -23 -6 -31 -1 -7 4 -24 4 -36 0 -14
-6 -26 -5 -29 0 -4 6 -13 7 -23 1 -11 -6 -24 -6 -34 0 -11 6 -19 6 -23 -1 -4
-7 -12 -7 -25 0 -12 7 -27 7 -44 0 -16 -6 -26 -6 -26 0 0 6 -9 6 -25 0 -15 -6
-26 -6 -30 0 -4 6 -14 6 -28 -2 -12 -6 -22 -11 -22 -11 0 0 -9 5 -21 11 -11 6
-26 7 -34 2 -7 -4 -24 -4 -37 1 -14 5 -23 5 -23 -1 0 -5 -9 -6 -22 -1 -13 4
-35 5 -50 0 -16 -4 -28 -4 -28 1 0 6 -10 6 -25 0 -13 -5 -27 -6 -29 -1 -3 4
-26 5 -51 1 -25 -4 -48 -3 -51 1 -2 5 -16 4 -29 -1 -15 -6 -27 -6 -30 1 -4 6
-13 6 -23 0 -9 -5 -26 -5 -39 0 -14 5 -23 5 -23 -1 0 -6 -9 -6 -23 -1 -13 5
-30 5 -38 1 -8 -5 -21 -5 -28 -1 -7 5 -30 5 -52 1 -21 -4 -39 -5 -39 -1 0 7
-100 4 -107 -3 -3 -3 -16 -1 -29 4 -14 6 -24 6 -24 0 0 -5 -12 -5 -30 0 -18 5
-32 5 -36 -1 -3 -5 -10 -7 -15 -3 -17 10 -59 12 -65 3 -3 -5 -14 -5 -24 1 -12
6 -21 7 -25 0 -4 -6 -15 -6 -30 0 -15 6 -25 6 -25 0 0 -9 -32 -6 -48 4 -4 2
-14 1 -22 -4 -8 -5 -19 -5 -25 -1 -5 4 -18 6 -27 3z"/>
</g>
</svg>
