<svg width="253" height="31" viewBox="0 0 253 31" fill="none" xmlns="http://www.w3.org/2000/svg">
<path d="M27.896 14.9521C27.6613 17.0641 26.936 18.9201 25.72 20.5201C24.504 22.0988 22.904 23.3254 20.92 24.2001C18.9573 25.0748 16.696 25.5121 14.136 25.5121C11.3413 25.5121 8.89867 24.9894 6.808 23.9441C4.71733 22.8988 3.08533 21.4374 1.912 19.5601C0.76 17.6828 0.184 15.4961 0.184 13.0001C0.184 10.5041 0.76 8.31742 1.912 6.44009C3.08533 4.56276 4.71733 3.10142 6.808 2.05609C8.89867 1.01076 11.3413 0.488091 14.136 0.488091C16.696 0.488091 18.9573 0.925424 20.92 1.80009C22.904 2.67476 24.504 3.91209 25.72 5.51209C26.936 7.09076 27.6613 8.93609 27.896 11.0481H21.24C21.0267 10.0241 20.6107 9.16009 19.992 8.45609C19.3733 7.73076 18.5627 7.17609 17.56 6.79209C16.5787 6.40809 15.4373 6.21609 14.136 6.21609C12.6427 6.21609 11.352 6.49342 10.264 7.04809C9.176 7.58142 8.344 8.36009 7.768 9.38409C7.192 10.3868 6.904 11.5921 6.904 13.0001C6.904 14.4081 7.192 15.6241 7.768 16.6481C8.344 17.6508 9.176 18.4294 10.264 18.9841C11.352 19.5174 12.6427 19.7841 14.136 19.7841C15.4373 19.7841 16.5787 19.6028 17.56 19.2401C18.5627 18.8774 19.3733 18.3334 19.992 17.6081C20.6107 16.8828 21.0267 15.9974 21.24 14.9521H27.896ZM41.4533 25.5121C39.1066 25.5121 37.0586 25.1174 35.3093 24.3281C33.5599 23.5174 32.1946 22.3868 31.2133 20.9361C30.2319 19.4641 29.7413 17.7788 29.7413 15.8801C29.7413 13.9388 30.2319 12.2428 31.2133 10.7921C32.1946 9.34142 33.5599 8.21076 35.3093 7.40009C37.0586 6.58942 39.1066 6.18409 41.4533 6.18409C43.7786 6.18409 45.8159 6.58942 47.5653 7.40009C49.3359 8.21076 50.7119 9.34142 51.6933 10.7921C52.6746 12.2428 53.1653 13.9388 53.1653 15.8801C53.1653 17.7788 52.6746 19.4641 51.6933 20.9361C50.7119 22.3868 49.3359 23.5174 47.5653 24.3281C45.8159 25.1174 43.7786 25.5121 41.4533 25.5121ZM41.4533 20.6801C42.5199 20.6801 43.4266 20.4881 44.1733 20.1041C44.9413 19.7201 45.5279 19.1654 45.9333 18.4401C46.3386 17.7148 46.5413 16.8614 46.5413 15.8801C46.5413 14.8561 46.3386 13.9921 45.9333 13.2881C45.5279 12.5628 44.9413 12.0081 44.1733 11.6241C43.4266 11.2401 42.5199 11.0481 41.4533 11.0481C40.3866 11.0481 39.4693 11.2401 38.7013 11.6241C37.9333 12.0081 37.3466 12.5628 36.9413 13.2881C36.5359 13.9921 36.3333 14.8454 36.3333 15.8481C36.3333 16.8508 36.5359 17.7148 36.9413 18.4401C37.3466 19.1654 37.9333 19.7201 38.7013 20.1041C39.4693 20.4881 40.3866 20.6801 41.4533 20.6801ZM55.917 6.72809H62.477V11.9761L62.189 12.7441V17.8641L62.477 19.3681V30.2801H55.917V6.72809ZM60.397 15.8801C60.6743 13.8961 61.2503 12.1894 62.125 10.7601C63.021 9.30942 64.1517 8.18942 65.517 7.40009C66.8823 6.58942 68.429 6.18409 70.157 6.18409C71.949 6.18409 73.517 6.58942 74.861 7.40009C76.2263 8.21076 77.2823 9.34142 78.029 10.7921C78.797 12.2428 79.181 13.9388 79.181 15.8801C79.181 17.7788 78.797 19.4641 78.029 20.9361C77.2823 22.3868 76.2263 23.5174 74.861 24.3281C73.517 25.1174 71.949 25.5121 70.157 25.5121C68.429 25.5121 66.8823 25.1174 65.517 24.3281C64.1517 23.5174 63.0317 22.3868 62.157 20.9361C61.2823 19.4854 60.6957 17.8001 60.397 15.8801ZM72.589 15.8801C72.589 14.9628 72.397 14.1521 72.013 13.4481C71.6503 12.7441 71.1277 12.1894 70.445 11.7841C69.7837 11.3788 69.0263 11.1761 68.173 11.1761C67.2983 11.1761 66.4663 11.3788 65.677 11.7841C64.8877 12.1894 64.1943 12.7441 63.597 13.4481C62.9997 14.1521 62.541 14.9628 62.221 15.8801C62.541 16.7761 62.9997 17.5761 63.597 18.2801C64.1943 18.9841 64.8877 19.5388 65.677 19.9441C66.4663 20.3281 67.2983 20.5201 68.173 20.5201C69.0263 20.5201 69.7837 20.3281 70.445 19.9441C71.1277 19.5388 71.6503 18.9841 72.013 18.2801C72.397 17.5761 72.589 16.7761 72.589 15.8801ZM86.9955 30.7921C85.6515 30.7921 84.4568 30.6214 83.4115 30.2801C82.3662 29.9601 81.3528 29.4588 80.3715 28.7761V24.2321C81.3742 24.8721 82.3128 25.3308 83.1875 25.6081C84.0622 25.8854 85.0222 26.0241 86.0675 26.0241C86.9422 26.0241 87.7208 25.8321 88.4035 25.4481C89.0862 25.0641 89.6408 24.3601 90.0675 23.3361L97.0755 6.72809H104.02L95.2515 25.3521C94.6328 26.6961 93.8755 27.7628 92.9795 28.5521C92.1048 29.3628 91.1555 29.9388 90.1315 30.2801C89.1075 30.6214 88.0622 30.7921 86.9955 30.7921ZM87.2195 23.3041L79.4435 6.72809H86.6435L93.5235 23.3041H87.2195Z" fill="#3548FE"/>
<path d="M141.375 1.00009V25.0001H135.071V3.36809L136.479 3.52809L127.199 25.0001H120.479L111.167 3.59209L112.607 3.43209V25.0001H106.303V1.00009H116.543L125.151 21.6081H122.591L131.135 1.00009H141.375ZM161.648 25.0001L160.816 18.4081L161.68 15.8801L160.816 13.3521L161.648 6.72809H168.432L167.28 15.8481L168.432 25.0001H161.648ZM163.184 15.8801C162.885 17.8001 162.288 19.4854 161.392 20.9361C160.517 22.3868 159.397 23.5174 158.032 24.3281C156.688 25.1174 155.152 25.5121 153.424 25.5121C151.632 25.5121 150.053 25.1174 148.688 24.3281C147.344 23.5174 146.288 22.3868 145.52 20.9361C144.752 19.4641 144.368 17.7788 144.368 15.8801C144.368 13.9388 144.752 12.2428 145.52 10.7921C146.288 9.34142 147.344 8.21076 148.688 7.40009C150.053 6.58942 151.632 6.18409 153.424 6.18409C155.152 6.18409 156.688 6.58942 158.032 7.40009C159.397 8.18942 160.528 9.30942 161.424 10.7601C162.32 12.1894 162.906 13.8961 163.184 15.8801ZM150.992 15.8801C150.992 16.7761 151.173 17.5761 151.536 18.2801C151.92 18.9841 152.442 19.5388 153.104 19.9441C153.765 20.3281 154.522 20.5201 155.376 20.5201C156.272 20.5201 157.114 20.3281 157.904 19.9441C158.693 19.5388 159.386 18.9841 159.984 18.2801C160.581 17.5761 161.029 16.7761 161.328 15.8801C161.029 14.9628 160.581 14.1521 159.984 13.4481C159.386 12.7441 158.693 12.1894 157.904 11.7841C157.114 11.3788 156.272 11.1761 155.376 11.1761C154.522 11.1761 153.765 11.3788 153.104 11.7841C152.442 12.1894 151.92 12.7441 151.536 13.4481C151.173 14.1521 150.992 14.9628 150.992 15.8801ZM192.695 19.0481C192.695 20.4561 192.268 21.6401 191.415 22.6001C190.561 23.5601 189.345 24.2854 187.767 24.7761C186.188 25.2668 184.289 25.5121 182.071 25.5121C179.788 25.5121 177.783 25.2348 176.055 24.6801C174.348 24.1254 173.015 23.3468 172.055 22.3441C171.095 21.3414 170.583 20.1788 170.519 18.8561H177.143C177.292 19.3468 177.58 19.7734 178.007 20.1361C178.455 20.4774 179.041 20.7441 179.767 20.9361C180.492 21.1068 181.356 21.1921 182.359 21.1921C183.66 21.1921 184.641 21.0641 185.303 20.8081C185.985 20.5521 186.327 20.1681 186.327 19.6561C186.327 19.2508 186.071 18.9521 185.559 18.7601C185.047 18.5468 184.172 18.3868 182.935 18.2801L179.703 18.0241C177.548 17.8748 175.831 17.5548 174.551 17.0641C173.292 16.5521 172.385 15.9014 171.831 15.1121C171.276 14.3014 170.999 13.3841 170.999 12.3601C170.999 10.9734 171.425 9.83209 172.279 8.93609C173.153 8.01876 174.359 7.33609 175.895 6.88809C177.452 6.41876 179.265 6.18409 181.335 6.18409C183.383 6.18409 185.207 6.45076 186.807 6.98409C188.407 7.51742 189.687 8.26409 190.647 9.22409C191.607 10.1628 192.161 11.2721 192.311 12.5521H185.687C185.58 12.1468 185.345 11.7841 184.983 11.4641C184.62 11.1228 184.119 10.8454 183.479 10.6321C182.839 10.4188 182.017 10.3121 181.015 10.3121C179.841 10.3121 178.945 10.4401 178.327 10.6961C177.729 10.9521 177.431 11.3148 177.431 11.7841C177.431 12.1468 177.612 12.4348 177.975 12.6481C178.359 12.8614 179.063 13.0108 180.087 13.0961L184.343 13.4161C186.455 13.5441 188.119 13.8534 189.335 14.3441C190.551 14.8134 191.415 15.4428 191.927 16.2321C192.439 17.0214 192.695 17.9601 192.695 19.0481ZM193.567 11.5601V8.71209L197.279 7.20809L200.095 1.80009H203.807V6.72809H211.487V11.5601H203.807V16.9361C203.807 18.2588 204.074 19.1868 204.607 19.7201C205.14 20.2534 206.111 20.5201 207.519 20.5201C208.415 20.5201 209.204 20.4454 209.887 20.2961C210.591 20.1254 211.231 19.9121 211.807 19.6561V24.5841C211.167 24.8188 210.324 25.0321 209.279 25.2241C208.234 25.4161 207.156 25.5121 206.047 25.5121C204.02 25.5121 202.356 25.2028 201.055 24.5841C199.775 23.9654 198.826 23.0801 198.207 21.9281C197.588 20.7548 197.279 19.3894 197.279 17.8321V11.5601H193.567ZM224.606 25.5121C222.387 25.5121 220.403 25.1068 218.654 24.2961C216.926 23.4854 215.56 22.3548 214.558 20.9041C213.555 19.4321 213.054 17.7254 213.054 15.7841C213.054 13.8854 213.534 12.2214 214.494 10.7921C215.454 9.34142 216.766 8.21076 218.43 7.40009C220.115 6.58942 222.014 6.18409 224.126 6.18409C226.323 6.18409 228.19 6.66409 229.726 7.62409C231.283 8.56276 232.478 9.89609 233.31 11.6241C234.163 13.3521 234.59 15.3894 234.59 17.7361H218.334V13.8001H230.91L228.766 15.1761C228.68 14.2374 228.446 13.4481 228.062 12.8081C227.678 12.1468 227.166 11.6454 226.526 11.3041C225.907 10.9628 225.16 10.7921 224.286 10.7921C223.326 10.7921 222.504 10.9841 221.822 11.3681C221.139 11.7521 220.606 12.2854 220.222 12.9681C219.838 13.6294 219.646 14.4081 219.646 15.3041C219.646 16.4561 219.902 17.4374 220.414 18.2481C220.947 19.0374 221.715 19.6454 222.718 20.0721C223.742 20.4988 224.99 20.7121 226.462 20.7121C227.806 20.7121 229.139 20.5414 230.462 20.2001C231.806 19.8374 233.022 19.3361 234.11 18.6961V22.8561C232.851 23.7094 231.411 24.3708 229.79 24.8401C228.19 25.2881 226.462 25.5121 224.606 25.5121ZM236.428 6.72809H243.084L244.172 13.2561V25.0001H237.644V12.8721L236.428 6.72809ZM252.748 6.44009V12.0081C252.108 11.8801 251.5 11.7948 250.924 11.7521C250.369 11.6881 249.857 11.6561 249.388 11.6561C248.449 11.6561 247.585 11.8481 246.796 12.2321C246.007 12.5948 245.367 13.2028 244.876 14.0561C244.407 14.9094 244.172 16.0508 244.172 17.4801L242.924 15.9441C243.095 14.6214 243.351 13.3841 243.692 12.2321C244.033 11.0588 244.492 10.0241 245.068 9.12809C245.665 8.21076 246.401 7.49609 247.276 6.98409C248.151 6.45076 249.217 6.18409 250.476 6.18409C250.839 6.18409 251.212 6.20542 251.596 6.24809C251.98 6.29076 252.364 6.35476 252.748 6.44009Z" fill="white"/>
</svg>
