<svg width="24" height="24" viewBox="0 0 24 24" fill="none" xmlns="http://www.w3.org/2000/svg">
<path d="M2.00024 12.0005C2.00024 17.5235 6.47724 22.0005 12.0002 22.0005C17.5232 22.0005 22.0002 17.5235 22.0002 12.0005C22.0002 6.47749 17.5232 2.00049 12.0002 2.00049C6.47724 2.00049 2.00024 6.47749 2.00024 12.0005Z" stroke="white" stroke-width="1.5" stroke-linecap="round" stroke-linejoin="round"/>
<path d="M13.0002 2.05029C13.0002 2.05029 16.0002 6.00029 16.0002 12.0003C16.0002 18.0003 13.0002 21.9503 13.0002 21.9503M11.0002 21.9503C11.0002 21.9503 8.00025 18.0003 8.00025 12.0003C8.00025 6.00029 11.0002 2.05029 11.0002 2.05029M2.63025 15.5003H21.3703M2.63025 8.50029H21.3703" stroke="white" stroke-width="1.5" stroke-linecap="round" stroke-linejoin="round"/>
</svg>
