<svg width="527" height="304" viewBox="0 0 527 304" fill="none" xmlns="http://www.w3.org/2000/svg">
<rect y="0.999634" width="527" height="303" rx="20" fill="white"/>
<path d="M45.8963 78.3014V98.303H41.7889V78.3014H45.8963ZM52.0507 78.3014V81.5297H35.7307V78.3014H52.0507ZM51.1303 91.0222V90.7337C51.1303 89.6439 51.286 88.641 51.5973 87.7252C51.9087 86.8002 52.3621 85.9989 52.9573 85.3212C53.5526 84.6435 54.2853 84.1169 55.1553 83.7414C56.0253 83.3568 57.0236 83.1644 58.1501 83.1644C59.2765 83.1644 60.2793 83.3568 61.1585 83.7414C62.0377 84.1169 62.775 84.6435 63.3702 85.3212C63.9747 85.9989 64.4326 86.8002 64.744 87.7252C65.0554 88.641 65.211 89.6439 65.211 90.7337V91.0222C65.211 92.1029 65.0554 93.1057 64.744 94.0307C64.4326 94.9465 63.9747 95.7478 63.3702 96.4347C62.775 97.1124 62.0423 97.639 61.1723 98.0145C60.3022 98.39 59.304 98.5777 58.1775 98.5777C57.0511 98.5777 56.0482 98.39 55.169 98.0145C54.299 97.639 53.5618 97.1124 52.9573 96.4347C52.3621 95.7478 51.9087 94.9465 51.5973 94.0307C51.286 93.1057 51.1303 92.1029 51.1303 91.0222ZM55.0866 90.7337V91.0222C55.0866 91.6449 55.1416 92.2265 55.2515 92.7668C55.3614 93.3072 55.5354 93.7834 55.7735 94.1955C56.0208 94.5985 56.3413 94.9144 56.7351 95.1434C57.1289 95.3723 57.6097 95.4868 58.1775 95.4868C58.727 95.4868 59.1987 95.3723 59.5925 95.1434C59.9863 94.9144 60.3022 94.5985 60.5403 94.1955C60.7785 93.7834 60.9525 93.3072 61.0624 92.7668C61.1814 92.2265 61.241 91.6449 61.241 91.0222V90.7337C61.241 90.1293 61.1814 89.5615 61.0624 89.0303C60.9525 88.4899 60.7739 88.0137 60.5266 87.6016C60.2885 87.1803 59.9725 86.8506 59.5787 86.6125C59.1849 86.3744 58.7087 86.2553 58.1501 86.2553C57.5914 86.2553 57.1152 86.3744 56.7214 86.6125C56.3367 86.8506 56.0208 87.1803 55.7735 87.6016C55.5354 88.0137 55.3614 88.4899 55.2515 89.0303C55.1416 89.5615 55.0866 90.1293 55.0866 90.7337ZM74.9233 83.4392V86.2416H66.2688V83.4392H74.9233ZM68.4118 79.7713H72.3682V93.8246C72.3682 94.255 72.4231 94.5847 72.533 94.8137C72.6521 95.0426 72.8261 95.2029 73.0551 95.2945C73.284 95.3769 73.5725 95.4181 73.9205 95.4181C74.1678 95.4181 74.3876 95.409 74.5799 95.3907C74.7814 95.3632 74.9508 95.3357 75.0882 95.3082L75.1019 98.2206C74.7631 98.3305 74.3967 98.4175 74.0029 98.4816C73.6091 98.5457 73.1741 98.5777 72.6979 98.5777C71.8279 98.5777 71.0677 98.4358 70.4175 98.1519C69.7764 97.8588 69.2819 97.3917 68.9339 96.7507C68.5858 96.1096 68.4118 95.267 68.4118 94.223V79.7713ZM85.1989 94.9511V88.3297C85.1989 87.8534 85.121 87.4459 84.9653 87.107C84.8096 86.759 84.567 86.4889 84.2373 86.2965C83.9167 86.1042 83.5 86.0081 82.9872 86.0081C82.5476 86.0081 82.1675 86.0859 81.847 86.2416C81.5264 86.3881 81.2792 86.6033 81.1051 86.8872C80.9311 87.162 80.8441 87.4871 80.8441 87.8626H76.8878C76.8878 87.2307 77.0343 86.6308 77.3274 86.063C77.6204 85.4952 78.0463 84.9961 78.6049 84.5656C79.1636 84.126 79.8276 83.7826 80.5969 83.5353C81.3753 83.2881 82.2453 83.1644 83.207 83.1644C84.3609 83.1644 85.3866 83.3568 86.2841 83.7414C87.1816 84.126 87.8868 84.703 88.3997 85.4723C88.9217 86.2416 89.1827 87.2032 89.1827 88.3571V94.7175C89.1827 95.5326 89.2331 96.2012 89.3338 96.7232C89.4346 97.236 89.5811 97.6848 89.7734 98.0694V98.303H85.7758C85.5835 97.9 85.437 97.3963 85.3362 96.7919C85.2447 96.1783 85.1989 95.5647 85.1989 94.9511ZM85.7209 89.2501L85.7484 91.4893H83.5367C83.0146 91.4893 82.5613 91.5488 82.1767 91.6678C81.792 91.7869 81.4761 91.9563 81.2288 92.1761C80.9815 92.3868 80.7983 92.634 80.6793 92.9179C80.5694 93.2018 80.5144 93.5132 80.5144 93.8521C80.5144 94.1909 80.5923 94.4977 80.748 94.7725C80.9037 95.0381 81.128 95.2487 81.4211 95.4044C81.7142 95.5509 82.0576 95.6242 82.4514 95.6242C83.0467 95.6242 83.5641 95.5051 84.0037 95.267C84.4433 95.0289 84.7822 94.7358 85.0203 94.3878C85.2676 94.0398 85.3958 93.7101 85.4049 93.3987L86.449 95.0747C86.3024 95.4502 86.101 95.8394 85.8445 96.2424C85.5973 96.6453 85.2813 97.0254 84.8967 97.3826C84.512 97.7306 84.0495 98.0191 83.5092 98.248C82.9688 98.4678 82.3278 98.5777 81.586 98.5777C80.6427 98.5777 79.7864 98.39 79.0171 98.0145C78.2569 97.6298 77.6525 97.1033 77.2037 96.4347C76.7641 95.757 76.5443 94.9877 76.5443 94.1268C76.5443 93.3484 76.6909 92.6569 76.9839 92.0525C77.277 91.448 77.7074 90.9398 78.2753 90.5276C78.8522 90.1064 79.5711 89.7904 80.432 89.5798C81.2929 89.36 82.2911 89.2501 83.4268 89.2501H85.7209ZM96.4085 77.2024V98.303H92.4385V77.2024H96.4085ZM114.72 91.1733H109.624V87.9588H114.72C115.508 87.9588 116.149 87.8305 116.644 87.5741C117.138 87.3085 117.5 86.9422 117.729 86.4751C117.958 86.0081 118.072 85.4815 118.072 84.8953C118.072 84.3 117.958 83.746 117.729 83.2331C117.5 82.7203 117.138 82.3081 116.644 81.9968C116.149 81.6854 115.508 81.5297 114.72 81.5297H111.053V98.303H106.931V78.3014H114.72C116.286 78.3014 117.628 78.5853 118.745 79.1531C119.872 79.7118 120.733 80.4856 121.328 81.4747C121.923 82.4638 122.221 83.5949 122.221 84.8679C122.221 86.1592 121.923 87.2765 121.328 88.2198C120.733 89.1631 119.872 89.8911 118.745 90.404C117.628 90.9169 116.286 91.1733 114.72 91.1733ZM128.774 86.6812V98.303H124.817V83.4392H128.54L128.774 86.6812ZM133.252 83.343L133.183 87.0109C132.991 86.9834 132.758 86.9605 132.483 86.9422C132.217 86.9147 131.975 86.901 131.755 86.901C131.196 86.901 130.711 86.9743 130.299 87.1208C129.896 87.2582 129.557 87.4642 129.282 87.739C129.016 88.0137 128.815 88.348 128.678 88.7418C128.549 89.1356 128.476 89.5843 128.458 90.088L127.661 89.8408C127.661 88.8792 127.757 87.9954 127.949 87.1895C128.142 86.3744 128.421 85.6646 128.787 85.0602C129.163 84.4557 129.621 83.9887 130.161 83.659C130.702 83.3293 131.32 83.1644 132.016 83.1644C132.236 83.1644 132.46 83.1827 132.689 83.2194C132.918 83.2469 133.106 83.2881 133.252 83.343ZM134.076 91.0222V90.7337C134.076 89.6439 134.232 88.641 134.543 87.7252C134.855 86.8002 135.308 85.9989 135.903 85.3212C136.499 84.6435 137.231 84.1169 138.101 83.7414C138.971 83.3568 139.97 83.1644 141.096 83.1644C142.223 83.1644 143.225 83.3568 144.105 83.7414C144.984 84.1169 145.721 84.6435 146.316 85.3212C146.921 85.9989 147.379 86.8002 147.69 87.7252C148.001 88.641 148.157 89.6439 148.157 90.7337V91.0222C148.157 92.1029 148.001 93.1057 147.69 94.0307C147.379 94.9465 146.921 95.7478 146.316 96.4347C145.721 97.1124 144.988 97.639 144.118 98.0145C143.248 98.39 142.25 98.5777 141.124 98.5777C139.997 98.5777 138.994 98.39 138.115 98.0145C137.245 97.639 136.508 97.1124 135.903 96.4347C135.308 95.7478 134.855 94.9465 134.543 94.0307C134.232 93.1057 134.076 92.1029 134.076 91.0222ZM138.033 90.7337V91.0222C138.033 91.6449 138.088 92.2265 138.198 92.7668C138.307 93.3072 138.481 93.7834 138.72 94.1955C138.967 94.5985 139.287 94.9144 139.681 95.1434C140.075 95.3723 140.556 95.4868 141.124 95.4868C141.673 95.4868 142.145 95.3723 142.539 95.1434C142.932 94.9144 143.248 94.5985 143.486 94.1955C143.725 93.7834 143.899 93.3072 144.008 92.7668C144.127 92.2265 144.187 91.6449 144.187 91.0222V90.7337C144.187 90.1293 144.127 89.5615 144.008 89.0303C143.899 88.4899 143.72 88.0137 143.473 87.6016C143.235 87.1803 142.919 86.8506 142.525 86.6125C142.131 86.3744 141.655 86.2553 141.096 86.2553C140.537 86.2553 140.061 86.3744 139.667 86.6125C139.283 86.8506 138.967 87.1803 138.72 87.6016C138.481 88.0137 138.307 88.4899 138.198 89.0303C138.088 89.5615 138.033 90.1293 138.033 90.7337ZM155.534 98.303H151.564V82.766C151.564 81.5022 151.82 80.4353 152.333 79.5652C152.855 78.6952 153.597 78.0358 154.559 77.5871C155.529 77.1383 156.702 76.9139 158.075 76.9139C158.854 76.9139 159.609 76.9918 160.342 77.1475C161.075 77.294 161.83 77.4863 162.609 77.7244L162.032 80.8978C161.528 80.7421 160.988 80.5955 160.411 80.4582C159.834 80.3208 159.138 80.2521 158.323 80.2521C157.407 80.2521 156.711 80.4673 156.235 80.8978C155.768 81.319 155.534 81.9418 155.534 82.766V98.303ZM158.488 83.4392V86.2416H149.352V83.4392H158.488ZM164.45 83.4392V98.303H160.48V83.4392H164.45ZM175.041 83.4392V86.2416H166.387V83.4392H175.041ZM168.53 79.7713H172.486V93.8246C172.486 94.255 172.541 94.5847 172.651 94.8137C172.77 95.0426 172.944 95.2029 173.173 95.2945C173.402 95.3769 173.69 95.4181 174.038 95.4181C174.286 95.4181 174.505 95.409 174.698 95.3907C174.899 95.3632 175.069 95.3357 175.206 95.3082L175.22 98.2206C174.881 98.3305 174.514 98.4175 174.121 98.4816C173.727 98.5457 173.292 98.5777 172.816 98.5777C171.946 98.5777 171.185 98.4358 170.535 98.1519C169.894 97.8588 169.4 97.3917 169.052 96.7507C168.704 96.1096 168.53 95.267 168.53 94.223V79.7713Z" fill="#0E0F16"/>
<path d="M41.1776 52.9243H37.9665L37.9493 51.1556H40.6452C41.1203 51.1556 41.5096 51.0955 41.8129 50.9753C42.1163 50.8494 42.3424 50.6691 42.4912 50.4344C42.6457 50.194 42.723 49.9021 42.723 49.5586C42.723 49.1694 42.6486 48.8546 42.4998 48.6142C42.3567 48.3738 42.1306 48.1992 41.8215 48.0905C41.5181 47.9817 41.1261 47.9273 40.6452 47.9273H38.8594V58.4106H36.2836V45.9097H40.6452C41.3722 45.9097 42.0218 45.9784 42.5942 46.1157C43.1723 46.2531 43.6617 46.462 44.0624 46.7425C44.4631 47.023 44.7693 47.3778 44.9811 47.8071C45.1929 48.2307 45.2988 48.7344 45.2988 49.3182C45.2988 49.8334 45.1814 50.3085 44.9467 50.7435C44.7178 51.1785 44.3543 51.5334 43.8563 51.8081C43.3641 52.0829 42.7202 52.2346 41.9245 52.2632L41.1776 52.9243ZM41.066 58.4106H37.2624L38.267 56.4016H41.066C41.5181 56.4016 41.8873 56.33 42.1735 56.1869C42.4597 56.0381 42.6715 55.8378 42.8089 55.5859C42.9462 55.3341 43.0149 55.045 43.0149 54.7187C43.0149 54.3524 42.952 54.0347 42.826 53.7657C42.7058 53.4967 42.5112 53.2906 42.2422 53.1475C41.9732 52.9987 41.6183 52.9243 41.1776 52.9243H38.6963L38.7134 51.1556H41.8043L42.3968 51.8511C43.158 51.8396 43.7705 51.9741 44.2341 52.2546C44.7035 52.5293 45.0441 52.8871 45.2558 53.3278C45.4733 53.7686 45.5821 54.2408 45.5821 54.7445C45.5821 55.5458 45.4075 56.2213 45.0584 56.7707C44.7092 57.3145 44.1969 57.7238 43.5215 57.9985C42.8518 58.2733 42.0333 58.4106 41.066 58.4106ZM52.8629 45.9097V58.4106H50.2957V45.9097H52.8629ZM56.7093 45.9097V47.9273H46.5094V45.9097H56.7093ZM65.1836 54.2637H67.7507C67.6992 55.1051 67.4674 55.8521 67.0553 56.5046C66.6489 57.1571 66.0794 57.6665 65.3467 58.0329C64.6198 58.3992 63.744 58.5824 62.7194 58.5824C61.9181 58.5824 61.1997 58.445 60.5644 58.1702C59.929 57.8898 59.3853 57.4891 58.9331 56.9682C58.4866 56.4473 58.146 55.8177 57.9114 55.0793C57.6767 54.341 57.5593 53.5139 57.5593 52.598V51.7309C57.5593 50.815 57.6795 49.9879 57.92 49.2496C58.1661 48.5054 58.5152 47.873 58.9674 47.3521C59.4253 46.8312 59.972 46.4305 60.6073 46.1501C61.2427 45.8696 61.9524 45.7294 62.7366 45.7294C63.7784 45.7294 64.657 45.9183 65.3725 46.296C66.0937 46.6738 66.6517 47.1947 67.0467 47.8587C67.4474 48.5226 67.6878 49.2782 67.7679 50.1253H65.1922C65.1635 49.6216 65.0634 49.1952 64.8917 48.846C64.7199 48.4911 64.4595 48.225 64.1103 48.0475C63.7669 47.8644 63.309 47.7728 62.7366 47.7728C62.3073 47.7728 61.9324 47.8529 61.6119 48.0132C61.2913 48.1735 61.0223 48.4167 60.8048 48.743C60.5873 49.0693 60.4242 49.4814 60.3154 49.9794C60.2124 50.4716 60.1609 51.0497 60.1609 51.7137V52.598C60.1609 53.2448 60.2095 53.8144 60.3068 54.3066C60.4041 54.7931 60.5529 55.2053 60.7533 55.543C60.9593 55.875 61.2226 56.1268 61.5432 56.2985C61.8694 56.4645 62.2615 56.5475 62.7194 56.5475C63.2575 56.5475 63.7011 56.4617 64.0502 56.2899C64.3994 56.1182 64.6656 55.8635 64.8487 55.5258C65.0376 55.1881 65.1492 54.7674 65.1836 54.2637ZM74.628 45.9097L70.0432 59.4839H68.2058L72.7906 45.9097H74.628ZM82.8704 45.9097H85.4376V54.1692C85.4376 55.1309 85.2315 55.9408 84.8194 56.599C84.413 57.2573 83.8492 57.7524 83.128 58.0844C82.4125 58.4164 81.5882 58.5824 80.6552 58.5824C79.7223 58.5824 78.8923 58.4164 78.1654 58.0844C77.4441 57.7524 76.8775 57.2573 76.4654 56.599C76.059 55.9408 75.8558 55.1309 75.8558 54.1692V45.9097H78.4315V54.1692C78.4315 54.7302 78.5202 55.1881 78.6977 55.543C78.8751 55.8979 79.1298 56.1583 79.4618 56.3243C79.7995 56.4903 80.1973 56.5733 80.6552 56.5733C81.1246 56.5733 81.5224 56.4903 81.8487 56.3243C82.1807 56.1583 82.4325 55.8979 82.6042 55.543C82.7817 55.1881 82.8704 54.7302 82.8704 54.1692V45.9097ZM94.0663 55.1394C94.0663 54.9162 94.032 54.7159 93.9633 54.5384C93.9003 54.3553 93.7801 54.1893 93.6027 54.0405C93.4252 53.8859 93.1763 53.7342 92.8557 53.5854C92.5352 53.4366 92.1202 53.282 91.6108 53.1218C91.0441 52.9386 90.5061 52.7325 89.9966 52.5036C89.4929 52.2746 89.0465 52.0085 88.6572 51.7051C88.2737 51.396 87.9704 51.0383 87.7471 50.6319C87.5296 50.2255 87.4209 49.7533 87.4209 49.2152C87.4209 48.6943 87.5354 48.2221 87.7643 47.7985C87.9933 47.3693 88.3138 47.0029 88.7259 46.6996C89.1381 46.3905 89.6246 46.1529 90.1855 45.9869C90.7522 45.8209 91.3732 45.7379 92.0487 45.7379C92.9702 45.7379 93.7744 45.9039 94.4613 46.2359C95.1481 46.5679 95.6805 47.023 96.0582 47.6011C96.4417 48.1792 96.6335 48.8403 96.6335 49.5844H94.0749C94.0749 49.2181 93.9976 48.8975 93.8431 48.6228C93.6943 48.3423 93.4653 48.1219 93.1562 47.9617C92.8529 47.8014 92.4694 47.7213 92.0057 47.7213C91.5593 47.7213 91.1872 47.79 90.8896 47.9273C90.5919 48.059 90.3687 48.2393 90.2199 48.4682C90.071 48.6915 89.9966 48.9433 89.9966 49.2238C89.9966 49.4356 90.0482 49.6273 90.1512 49.799C90.2599 49.9708 90.4202 50.131 90.632 50.2799C90.8438 50.4287 91.1042 50.5689 91.4133 50.7006C91.7224 50.8322 92.0801 50.961 92.4865 51.0869C93.1677 51.293 93.7658 51.5248 94.281 51.7824C94.8018 52.04 95.2369 52.329 95.586 52.6495C95.9352 52.9701 96.1985 53.3336 96.3759 53.7399C96.5534 54.1463 96.6421 54.6071 96.6421 55.1223C96.6421 55.666 96.5362 56.1526 96.3244 56.5819C96.1126 57.0112 95.8064 57.3746 95.4057 57.6723C95.005 57.9699 94.5271 58.196 93.9719 58.3505C93.4167 58.5051 92.7956 58.5824 92.1088 58.5824C91.4906 58.5824 90.881 58.5022 90.28 58.342C89.679 58.176 89.1323 57.927 88.6401 57.595C88.1535 57.263 87.7643 56.8394 87.4724 56.3243C87.1805 55.8091 87.0345 55.1995 87.0345 54.4955H89.6189C89.6189 54.8847 89.679 55.2139 89.7992 55.4829C89.9194 55.7519 90.0882 55.9694 90.3057 56.1354C90.529 56.3014 90.7923 56.4216 91.0956 56.496C91.4047 56.5704 91.7424 56.6076 92.1088 56.6076C92.5552 56.6076 92.9215 56.5447 93.2077 56.4187C93.4997 56.2928 93.7143 56.1182 93.8517 55.895C93.9948 55.6718 94.0663 55.4199 94.0663 55.1394ZM102.231 58.4106H99.5097L99.5269 56.4016H102.231C102.907 56.4016 103.476 56.2499 103.94 55.9465C104.404 55.6374 104.753 55.1881 104.988 54.5985C105.228 54.009 105.348 53.2963 105.348 52.4607V51.8511C105.348 51.21 105.279 50.6462 105.142 50.1597C105.01 49.6731 104.813 49.2639 104.55 48.9319C104.286 48.5999 103.963 48.3509 103.579 48.1849C103.196 48.0132 102.755 47.9273 102.257 47.9273H99.4582V45.9097H102.257C103.093 45.9097 103.857 46.0528 104.55 46.339C105.248 46.6194 105.852 47.023 106.361 47.5496C106.871 48.0762 107.263 48.7058 107.538 49.4384C107.818 50.1654 107.958 50.9753 107.958 51.8682V52.4607C107.958 53.3479 107.818 54.1578 107.538 54.8905C107.263 55.6231 106.871 56.2527 106.361 56.7793C105.858 57.3002 105.254 57.7037 104.55 57.9899C103.851 58.2704 103.079 58.4106 102.231 58.4106ZM100.969 45.9097V58.4106H98.3936V45.9097H100.969ZM114.835 45.9097V58.4106H112.268V45.9097H114.835ZM118.682 45.9097V47.9273H108.482V45.9097H118.682Z" fill="#0E0F16"/>
<path d="M454.192 85.4731L456.802 91.1741L459.412 85.4731H462.22L458.107 93.4236V97.9741H455.497V93.4236L451.376 85.4731H454.192ZM466.916 98.1458C466.195 98.1458 465.548 98.0314 464.976 97.8024C464.404 97.5677 463.917 97.2443 463.516 96.8322C463.121 96.4201 462.818 95.9421 462.606 95.3984C462.395 94.8489 462.289 94.265 462.289 93.6469V93.3034C462.289 92.5994 462.389 91.9554 462.589 91.3716C462.789 90.7878 463.076 90.2812 463.448 89.8519C463.825 89.4226 464.283 89.0935 464.821 88.8645C465.359 88.6299 465.966 88.5125 466.642 88.5125C467.3 88.5125 467.884 88.6213 468.393 88.8388C468.903 89.0563 469.329 89.3654 469.672 89.7661C470.022 90.1667 470.285 90.6475 470.462 91.2085C470.64 91.7637 470.728 92.3819 470.728 93.063V94.0933H463.345V92.4448H468.299V92.256C468.299 91.9125 468.236 91.6063 468.11 91.3373C467.99 91.0625 467.806 90.845 467.56 90.6847C467.314 90.5245 466.999 90.4443 466.616 90.4443C466.29 90.4443 466.009 90.5159 465.774 90.659C465.54 90.8021 465.348 91.0024 465.199 91.26C465.056 91.5176 464.947 91.8209 464.873 92.1701C464.804 92.5135 464.77 92.8913 464.77 93.3034V93.6469C464.77 94.0189 464.821 94.3623 464.924 94.6772C465.033 94.992 465.185 95.2639 465.38 95.4928C465.58 95.7218 465.82 95.8992 466.101 96.0251C466.387 96.1511 466.71 96.214 467.071 96.214C467.517 96.214 467.932 96.1282 468.316 95.9564C468.705 95.779 469.04 95.5128 469.32 95.158L470.522 96.463C470.328 96.7435 470.062 97.0125 469.724 97.2701C469.392 97.5277 468.991 97.7394 468.522 97.9054C468.053 98.0657 467.517 98.1458 466.916 98.1458ZM477.151 95.8792V91.7408C477.151 91.4432 477.102 91.1884 477.005 90.9767C476.907 90.7592 476.756 90.5903 476.55 90.4701C476.349 90.3499 476.089 90.2898 475.768 90.2898C475.494 90.2898 475.256 90.3384 475.056 90.4358C474.855 90.5273 474.701 90.6618 474.592 90.8393C474.483 91.011 474.429 91.2142 474.429 91.4489H471.956C471.956 91.0539 472.048 90.679 472.231 90.3241C472.414 89.9693 472.68 89.6573 473.029 89.3883C473.379 89.1135 473.794 88.8989 474.274 88.7443C474.761 88.5898 475.305 88.5125 475.906 88.5125C476.627 88.5125 477.268 88.6327 477.829 88.8731C478.39 89.1135 478.831 89.4741 479.151 89.9549C479.477 90.4358 479.641 91.0368 479.641 91.758V95.7332C479.641 96.2426 479.672 96.6605 479.735 96.9867C479.798 97.3073 479.89 97.5878 480.01 97.8282V97.9741H477.511C477.391 97.7223 477.3 97.4075 477.237 97.0297C477.179 96.6462 477.151 96.2627 477.151 95.8792ZM477.477 92.3161L477.494 93.7155H476.112C475.786 93.7155 475.502 93.7528 475.262 93.8272C475.021 93.9016 474.824 94.0075 474.669 94.1448C474.515 94.2765 474.4 94.431 474.326 94.6085C474.257 94.7859 474.223 94.9805 474.223 95.1923C474.223 95.4041 474.272 95.5958 474.369 95.7676C474.466 95.9336 474.606 96.0652 474.79 96.1625C474.973 96.2541 475.187 96.2999 475.434 96.2999C475.806 96.2999 476.129 96.2255 476.404 96.0767C476.678 95.9278 476.89 95.7447 477.039 95.5272C477.194 95.3096 477.274 95.1036 477.279 94.909L477.932 95.9564C477.84 96.1911 477.715 96.4344 477.554 96.6862C477.4 96.9381 477.202 97.1756 476.962 97.3989C476.721 97.6164 476.432 97.7967 476.095 97.9398C475.757 98.0772 475.356 98.1458 474.893 98.1458C474.303 98.1458 473.768 98.0285 473.287 97.7938C472.812 97.5534 472.434 97.2243 472.154 96.8064C471.879 96.3829 471.742 95.9021 471.742 95.364C471.742 94.8775 471.833 94.4453 472.016 94.0676C472.2 93.6898 472.469 93.3721 472.823 93.1145C473.184 92.8512 473.633 92.6538 474.171 92.5221C474.709 92.3847 475.333 92.3161 476.043 92.3161H477.477ZM484.019 90.7105V97.9741H481.547V88.6842H483.873L484.019 90.7105ZM486.818 88.6241L486.775 90.9166C486.655 90.8994 486.509 90.8851 486.338 90.8736C486.172 90.8565 486.02 90.8479 485.882 90.8479C485.533 90.8479 485.23 90.8937 484.972 90.9852C484.721 91.0711 484.509 91.1999 484.337 91.3716C484.171 91.5433 484.045 91.7523 483.959 91.9984C483.879 92.2445 483.833 92.525 483.822 92.8398L483.324 92.6852C483.324 92.0842 483.384 91.5319 483.504 91.0282C483.624 90.5188 483.799 90.0752 484.028 89.6974C484.263 89.3196 484.549 89.0277 484.887 88.8216C485.224 88.6156 485.611 88.5125 486.046 88.5125C486.183 88.5125 486.323 88.524 486.466 88.5469C486.609 88.564 486.727 88.5898 486.818 88.6241Z" fill="#0E0F16"/>
<path d="M89.6772 160.101H484.433" stroke="#E0E0E1" stroke-width="0.87919"/>
<path d="M89.6772 198.786H484.433" stroke="#E0E0E1" stroke-width="0.87919"/>
<path d="M89.6772 237.47H484.433" stroke="#E0E0E1" stroke-width="0.87919"/>
<path d="M446.584 132.372V133.943H445.811V132.372H446.584ZM446.491 140.784V142.16H445.723V140.784H446.491ZM447.521 139.156C447.521 138.95 447.475 138.765 447.382 138.6C447.289 138.435 447.137 138.284 446.924 138.147C446.711 138.009 446.426 137.882 446.069 137.765C445.636 137.631 445.261 137.468 444.946 137.276C444.633 137.084 444.391 136.845 444.219 136.56C444.051 136.275 443.967 135.93 443.967 135.524C443.967 135.102 444.058 134.738 444.24 134.432C444.422 134.127 444.679 133.891 445.012 133.727C445.346 133.562 445.737 133.479 446.187 133.479C446.537 133.479 446.85 133.532 447.125 133.639C447.399 133.742 447.631 133.897 447.82 134.103C448.012 134.309 448.158 134.561 448.258 134.86C448.361 135.159 448.412 135.504 448.412 135.895H447.465C447.465 135.665 447.437 135.454 447.382 135.262C447.327 135.069 447.245 134.903 447.135 134.762C447.025 134.618 446.891 134.508 446.733 134.432C446.575 134.353 446.393 134.314 446.187 134.314C445.899 134.314 445.66 134.364 445.471 134.463C445.286 134.563 445.148 134.704 445.059 134.886C444.97 135.064 444.925 135.272 444.925 135.509C444.925 135.729 444.97 135.921 445.059 136.086C445.148 136.251 445.299 136.4 445.512 136.534C445.729 136.665 446.026 136.793 446.403 136.92C446.846 137.061 447.222 137.228 447.532 137.42C447.841 137.609 448.076 137.843 448.237 138.121C448.399 138.395 448.479 138.737 448.479 139.146C448.479 139.589 448.38 139.963 448.181 140.269C447.981 140.571 447.702 140.801 447.341 140.959C446.98 141.117 446.558 141.196 446.074 141.196C445.782 141.196 445.493 141.157 445.208 141.078C444.923 140.999 444.666 140.87 444.436 140.691C444.205 140.509 444.022 140.271 443.884 139.975C443.747 139.677 443.678 139.311 443.678 138.878H444.636C444.636 139.17 444.678 139.412 444.76 139.604C444.846 139.793 444.959 139.944 445.1 140.058C445.241 140.168 445.395 140.247 445.564 140.295C445.735 140.339 445.905 140.362 446.074 140.362C446.383 140.362 446.644 140.314 446.857 140.217C447.073 140.118 447.238 139.977 447.351 139.795C447.465 139.613 447.521 139.4 447.521 139.156ZM457.015 139.058C457.015 139.515 456.909 139.903 456.696 140.223C456.487 140.539 456.202 140.779 455.841 140.944C455.484 141.109 455.08 141.191 454.63 141.191C454.18 141.191 453.775 141.109 453.415 140.944C453.054 140.779 452.769 140.539 452.559 140.223C452.35 139.903 452.245 139.515 452.245 139.058C452.245 138.76 452.302 138.487 452.415 138.239C452.532 137.989 452.695 137.77 452.905 137.585C453.118 137.4 453.368 137.257 453.657 137.157C453.949 137.054 454.27 137.003 454.62 137.003C455.08 137.003 455.491 137.092 455.851 137.271C456.212 137.446 456.495 137.688 456.701 137.997C456.911 138.306 457.015 138.66 457.015 139.058ZM456.057 139.038C456.057 138.76 455.997 138.514 455.877 138.301C455.757 138.085 455.589 137.916 455.372 137.796C455.156 137.676 454.905 137.616 454.62 137.616C454.328 137.616 454.076 137.676 453.863 137.796C453.653 137.916 453.49 138.085 453.373 138.301C453.257 138.514 453.198 138.76 453.198 139.038C453.198 139.326 453.255 139.573 453.368 139.78C453.485 139.982 453.65 140.138 453.863 140.248C454.079 140.355 454.335 140.408 454.63 140.408C454.926 140.408 455.18 140.355 455.393 140.248C455.606 140.138 455.769 139.982 455.882 139.78C455.999 139.573 456.057 139.326 456.057 139.038ZM456.84 135.54C456.84 135.904 456.744 136.232 456.552 136.524C456.36 136.816 456.097 137.046 455.764 137.214C455.431 137.382 455.053 137.467 454.63 137.467C454.201 137.467 453.818 137.382 453.482 137.214C453.148 137.046 452.887 136.816 452.699 136.524C452.51 136.232 452.415 135.904 452.415 135.54C452.415 135.104 452.51 134.733 452.699 134.427C452.891 134.121 453.154 133.888 453.487 133.727C453.82 133.565 454.199 133.484 454.625 133.484C455.054 133.484 455.436 133.565 455.769 133.727C456.102 133.888 456.363 134.121 456.552 134.427C456.744 134.733 456.84 135.104 456.84 135.54ZM455.887 135.555C455.887 135.305 455.834 135.083 455.728 134.891C455.621 134.698 455.473 134.547 455.285 134.437C455.096 134.324 454.876 134.267 454.625 134.267C454.374 134.267 454.155 134.321 453.966 134.427C453.78 134.53 453.634 134.678 453.528 134.87C453.425 135.062 453.373 135.291 453.373 135.555C453.373 135.813 453.425 136.038 453.528 136.23C453.634 136.422 453.782 136.572 453.971 136.678C454.16 136.785 454.38 136.838 454.63 136.838C454.881 136.838 455.099 136.785 455.285 136.678C455.473 136.572 455.621 136.422 455.728 136.23C455.834 136.038 455.887 135.813 455.887 135.555ZM462.229 136.869H462.909C463.242 136.869 463.517 136.814 463.733 136.704C463.953 136.591 464.116 136.438 464.222 136.246C464.332 136.05 464.387 135.83 464.387 135.586C464.387 135.298 464.339 135.056 464.243 134.86C464.147 134.664 464.003 134.516 463.81 134.417C463.618 134.317 463.374 134.267 463.079 134.267C462.811 134.267 462.574 134.321 462.368 134.427C462.165 134.53 462.006 134.678 461.889 134.87C461.775 135.062 461.719 135.289 461.719 135.55H460.766C460.766 135.169 460.862 134.822 461.054 134.51C461.247 134.197 461.516 133.948 461.863 133.763C462.213 133.577 462.619 133.484 463.079 133.484C463.532 133.484 463.929 133.565 464.269 133.727C464.609 133.884 464.873 134.121 465.062 134.437C465.251 134.75 465.345 135.14 465.345 135.607C465.345 135.796 465.301 135.998 465.212 136.215C465.126 136.428 464.99 136.627 464.805 136.812C464.623 136.998 464.386 137.151 464.094 137.271C463.802 137.388 463.451 137.446 463.043 137.446H462.229V136.869ZM462.229 137.652V137.08H463.043C463.52 137.08 463.915 137.137 464.228 137.25C464.54 137.363 464.786 137.515 464.964 137.703C465.146 137.892 465.273 138.1 465.345 138.327C465.421 138.55 465.459 138.773 465.459 138.997C465.459 139.347 465.399 139.658 465.278 139.929C465.162 140.2 464.995 140.43 464.779 140.619C464.566 140.808 464.315 140.951 464.027 141.047C463.738 141.143 463.424 141.191 463.084 141.191C462.758 141.191 462.45 141.145 462.162 141.052C461.877 140.959 461.624 140.825 461.405 140.65C461.185 140.472 461.013 140.253 460.889 139.996C460.766 139.735 460.704 139.438 460.704 139.105H461.657C461.657 139.366 461.714 139.594 461.827 139.79C461.944 139.986 462.109 140.138 462.322 140.248C462.538 140.355 462.792 140.408 463.084 140.408C463.376 140.408 463.627 140.358 463.836 140.259C464.049 140.156 464.212 140.001 464.325 139.795C464.442 139.589 464.501 139.33 464.501 139.017C464.501 138.705 464.435 138.449 464.305 138.25C464.174 138.047 463.989 137.898 463.748 137.801C463.512 137.702 463.232 137.652 462.909 137.652H462.229ZM467.978 137.518L467.215 137.322L467.592 133.587H471.44V134.468H468.4L468.174 136.508C468.311 136.429 468.484 136.355 468.694 136.287C468.907 136.218 469.151 136.184 469.425 136.184C469.772 136.184 470.083 136.244 470.358 136.364C470.633 136.481 470.866 136.649 471.058 136.869C471.254 137.089 471.404 137.353 471.507 137.662C471.61 137.971 471.661 138.317 471.661 138.698C471.661 139.058 471.611 139.39 471.512 139.692C471.416 139.994 471.27 140.259 471.074 140.485C470.878 140.709 470.631 140.882 470.332 141.006C470.037 141.129 469.688 141.191 469.286 141.191C468.984 141.191 468.697 141.15 468.426 141.067C468.158 140.982 467.918 140.853 467.705 140.681C467.495 140.506 467.324 140.29 467.19 140.032C467.059 139.771 466.977 139.465 466.942 139.115H467.849C467.89 139.397 467.973 139.634 468.096 139.826C468.22 140.018 468.381 140.164 468.581 140.264C468.783 140.36 469.018 140.408 469.286 140.408C469.513 140.408 469.714 140.369 469.889 140.29C470.064 140.211 470.212 140.097 470.332 139.95C470.452 139.802 470.543 139.623 470.605 139.414C470.67 139.204 470.703 138.969 470.703 138.708C470.703 138.471 470.67 138.251 470.605 138.049C470.54 137.846 470.442 137.669 470.312 137.518C470.184 137.367 470.028 137.25 469.843 137.168C469.657 137.082 469.444 137.039 469.204 137.039C468.885 137.039 468.642 137.082 468.478 137.168C468.316 137.254 468.15 137.37 467.978 137.518ZM477.415 136.74V137.884C477.415 138.499 477.36 139.017 477.251 139.44C477.141 139.862 476.983 140.202 476.777 140.46C476.571 140.717 476.322 140.904 476.03 141.021C475.741 141.134 475.415 141.191 475.051 141.191C474.762 141.191 474.496 141.155 474.252 141.083C474.009 141.011 473.789 140.896 473.593 140.738C473.401 140.576 473.236 140.367 473.098 140.109C472.961 139.852 472.856 139.539 472.784 139.172C472.712 138.804 472.676 138.375 472.676 137.884V136.74C472.676 136.125 472.731 135.61 472.841 135.195C472.954 134.779 473.114 134.446 473.32 134.195C473.526 133.941 473.773 133.759 474.062 133.649C474.354 133.539 474.68 133.484 475.041 133.484C475.333 133.484 475.6 133.52 475.844 133.593C476.091 133.661 476.311 133.773 476.504 133.927C476.696 134.079 476.859 134.281 476.993 134.535C477.13 134.786 477.235 135.093 477.307 135.457C477.379 135.821 477.415 136.249 477.415 136.74ZM476.457 138.038V136.58C476.457 136.244 476.437 135.949 476.395 135.694C476.358 135.437 476.301 135.217 476.225 135.035C476.15 134.853 476.054 134.705 475.937 134.592C475.824 134.479 475.691 134.396 475.54 134.345C475.393 134.29 475.226 134.262 475.041 134.262C474.814 134.262 474.613 134.305 474.438 134.391C474.263 134.473 474.115 134.606 473.995 134.788C473.878 134.97 473.789 135.208 473.727 135.504C473.665 135.799 473.634 136.158 473.634 136.58V138.038C473.634 138.375 473.653 138.672 473.691 138.93C473.732 139.187 473.792 139.41 473.871 139.599C473.95 139.785 474.046 139.938 474.16 140.058C474.273 140.178 474.404 140.267 474.551 140.326C474.702 140.381 474.869 140.408 475.051 140.408C475.284 140.408 475.489 140.363 475.664 140.274C475.839 140.185 475.985 140.046 476.102 139.857C476.222 139.664 476.311 139.419 476.37 139.12C476.428 138.818 476.457 138.457 476.457 138.038ZM478.76 140.583C478.76 140.422 478.81 140.286 478.909 140.176C479.012 140.063 479.16 140.006 479.352 140.006C479.545 140.006 479.691 140.063 479.79 140.176C479.893 140.286 479.945 140.422 479.945 140.583C479.945 140.741 479.893 140.875 479.79 140.985C479.691 141.095 479.545 141.15 479.352 141.15C479.16 141.15 479.012 141.095 478.909 140.985C478.81 140.875 478.76 140.741 478.76 140.583ZM482.629 137.518L481.866 137.322L482.242 133.587H486.091V134.468H483.051L482.825 136.508C482.962 136.429 483.135 136.355 483.345 136.287C483.558 136.218 483.802 136.184 484.076 136.184C484.423 136.184 484.734 136.244 485.009 136.364C485.283 136.481 485.517 136.649 485.709 136.869C485.905 137.089 486.054 137.353 486.158 137.662C486.261 137.971 486.312 138.317 486.312 138.698C486.312 139.058 486.262 139.39 486.163 139.692C486.067 139.994 485.921 140.259 485.725 140.485C485.529 140.709 485.282 140.882 484.983 141.006C484.688 141.129 484.339 141.191 483.937 141.191C483.635 141.191 483.348 141.15 483.077 141.067C482.809 140.982 482.569 140.853 482.356 140.681C482.146 140.506 481.975 140.29 481.841 140.032C481.71 139.771 481.628 139.465 481.593 139.115H482.5C482.541 139.397 482.624 139.634 482.747 139.826C482.871 140.018 483.032 140.164 483.231 140.264C483.434 140.36 483.669 140.408 483.937 140.408C484.164 140.408 484.365 140.369 484.54 140.29C484.715 140.211 484.863 140.097 484.983 139.95C485.103 139.802 485.194 139.623 485.256 139.414C485.321 139.204 485.354 138.969 485.354 138.708C485.354 138.471 485.321 138.251 485.256 138.049C485.191 137.846 485.093 137.669 484.962 137.518C484.835 137.367 484.679 137.25 484.494 137.168C484.308 137.082 484.095 137.039 483.855 137.039C483.535 137.039 483.293 137.082 483.128 137.168C482.967 137.254 482.8 137.37 482.629 137.518Z" fill="#0E0F16"/>
<path d="M484.434 150.43L474.883 154.87L469.426 152.897L464.651 159.31L460.558 163.75L457.83 174.11H451.69L448.28 179.043H442.14L434.636 182.496L425.769 179.043L405.986 171.15L374.607 184.963L355.507 174.11L346.639 165.723H338.453L327.539 174.11L312.531 182.496L290.703 196.309C287.747 200.913 281.289 210.517 279.106 212.095C276.923 213.674 272.739 216.7 270.92 218.015L264.781 225.415L257.277 218.015L247.045 220.482L244.998 215.055L234.084 221.962L229.309 215.055L222.488 212.095L206.798 225.415L197.248 239.228L184.969 236.762L176.367 225.415H172.168L163.388 220.482L151.173 215.055L138.957 218.015L127.504 208.326H111.853L95.4381 196.309L87.0398 190.172" stroke="#3548FE" stroke-width="1.75838"/>
<circle cx="484.434" cy="150.43" r="2.63757" fill="#FF363A"/>
<path d="M349.301 266.029V266.812H344.392V266.127L346.849 263.392C347.151 263.055 347.385 262.77 347.55 262.536C347.718 262.299 347.835 262.088 347.9 261.903C347.969 261.714 348.003 261.522 348.003 261.326C348.003 261.079 347.951 260.855 347.848 260.656C347.749 260.453 347.601 260.292 347.405 260.172C347.21 260.052 346.973 259.992 346.694 259.992C346.361 259.992 346.083 260.057 345.86 260.187C345.64 260.314 345.475 260.493 345.365 260.723C345.255 260.953 345.2 261.218 345.2 261.516H344.247C344.247 261.094 344.34 260.708 344.526 260.357C344.711 260.007 344.986 259.729 345.35 259.523C345.714 259.313 346.162 259.209 346.694 259.209C347.168 259.209 347.574 259.293 347.91 259.461C348.247 259.626 348.504 259.859 348.683 260.162C348.865 260.46 348.956 260.811 348.956 261.212C348.956 261.432 348.918 261.655 348.843 261.882C348.77 262.105 348.669 262.329 348.539 262.552C348.412 262.775 348.262 262.995 348.09 263.211C347.922 263.428 347.742 263.641 347.55 263.85L345.54 266.029H349.301ZM355.03 262.464V263.608C355.03 264.223 354.975 264.741 354.865 265.164C354.755 265.586 354.597 265.926 354.391 266.184C354.185 266.441 353.936 266.628 353.644 266.745C353.355 266.858 353.029 266.915 352.665 266.915C352.376 266.915 352.11 266.879 351.866 266.807C351.623 266.735 351.403 266.62 351.207 266.462C351.015 266.3 350.85 266.091 350.713 265.833C350.575 265.576 350.47 265.263 350.398 264.896C350.326 264.528 350.29 264.099 350.29 263.608V262.464C350.29 261.85 350.345 261.334 350.455 260.919C350.568 260.503 350.728 260.17 350.934 259.919C351.14 259.665 351.387 259.483 351.676 259.373C351.968 259.263 352.294 259.209 352.655 259.209C352.947 259.209 353.214 259.245 353.458 259.317C353.706 259.385 353.925 259.497 354.118 259.652C354.31 259.803 354.473 260.005 354.607 260.259C354.744 260.51 354.849 260.818 354.921 261.182C354.993 261.546 355.03 261.973 355.03 262.464ZM354.071 263.762V262.305C354.071 261.968 354.051 261.673 354.01 261.419C353.972 261.161 353.915 260.941 353.84 260.759C353.764 260.577 353.668 260.429 353.551 260.316C353.438 260.203 353.305 260.12 353.154 260.069C353.007 260.014 352.84 259.986 352.655 259.986C352.428 259.986 352.227 260.029 352.052 260.115C351.877 260.198 351.729 260.33 351.609 260.512C351.492 260.694 351.403 260.933 351.341 261.228C351.279 261.523 351.248 261.882 351.248 262.305V263.762C351.248 264.099 351.267 264.396 351.305 264.654C351.346 264.911 351.406 265.134 351.485 265.323C351.564 265.509 351.66 265.662 351.774 265.782C351.887 265.902 352.018 265.991 352.165 266.05C352.316 266.105 352.483 266.132 352.665 266.132C352.899 266.132 353.103 266.087 353.278 265.998C353.453 265.909 353.599 265.77 353.716 265.581C353.836 265.389 353.925 265.143 353.984 264.844C354.042 264.542 354.071 264.181 354.071 263.762ZM361.17 266.029V266.812H356.261V266.127L358.718 263.392C359.02 263.055 359.254 262.77 359.419 262.536C359.587 262.299 359.704 262.088 359.769 261.903C359.838 261.714 359.872 261.522 359.872 261.326C359.872 261.079 359.82 260.855 359.717 260.656C359.618 260.453 359.47 260.292 359.274 260.172C359.079 260.052 358.842 259.992 358.563 259.992C358.23 259.992 357.952 260.057 357.729 260.187C357.509 260.314 357.344 260.493 357.234 260.723C357.124 260.953 357.07 261.218 357.07 261.516H356.116C356.116 261.094 356.209 260.708 356.395 260.357C356.58 260.007 356.855 259.729 357.219 259.523C357.583 259.313 358.031 259.209 358.563 259.209C359.037 259.209 359.443 259.293 359.779 259.461C360.116 259.626 360.373 259.859 360.552 260.162C360.734 260.46 360.825 260.811 360.825 261.212C360.825 261.432 360.787 261.655 360.712 261.882C360.64 262.105 360.538 262.329 360.408 262.552C360.281 262.775 360.131 262.995 359.96 263.211C359.791 263.428 359.611 263.641 359.419 263.85L357.41 266.029H361.17ZM367.105 266.029V266.812H362.195V266.127L364.653 263.392C364.955 263.055 365.188 262.77 365.353 262.536C365.521 262.299 365.638 262.088 365.703 261.903C365.772 261.714 365.806 261.522 365.806 261.326C365.806 261.079 365.755 260.855 365.652 260.656C365.552 260.453 365.405 260.292 365.209 260.172C365.013 260.052 364.776 259.992 364.498 259.992C364.165 259.992 363.887 260.057 363.663 260.187C363.444 260.314 363.279 260.493 363.169 260.723C363.059 260.953 363.004 261.218 363.004 261.516H362.051C362.051 261.094 362.144 260.708 362.329 260.357C362.515 260.007 362.789 259.729 363.153 259.523C363.517 259.313 363.966 259.209 364.498 259.209C364.972 259.209 365.377 259.293 365.714 259.461C366.05 259.626 366.308 259.859 366.486 260.162C366.668 260.46 366.759 260.811 366.759 261.212C366.759 261.432 366.722 261.655 366.646 261.882C366.574 262.105 366.473 262.329 366.342 262.552C366.215 262.775 366.066 262.995 365.894 263.211C365.726 263.428 365.545 263.641 365.353 263.85L363.344 266.029H367.105Z" fill="#0E0F16"/>
<path d="M285.12 266.029V266.812H280.211V266.127L282.668 263.392C282.97 263.055 283.204 262.77 283.369 262.536C283.537 262.299 283.654 262.088 283.719 261.903C283.788 261.714 283.822 261.522 283.822 261.326C283.822 261.079 283.77 260.855 283.667 260.656C283.568 260.453 283.42 260.292 283.224 260.172C283.029 260.052 282.792 259.992 282.513 259.992C282.18 259.992 281.902 260.057 281.679 260.187C281.459 260.314 281.294 260.493 281.184 260.723C281.074 260.953 281.02 261.218 281.02 261.516H280.067C280.067 261.094 280.159 260.708 280.345 260.357C280.53 260.007 280.805 259.729 281.169 259.523C281.533 259.313 281.981 259.209 282.513 259.209C282.987 259.209 283.393 259.293 283.729 259.461C284.066 259.626 284.323 259.859 284.502 260.162C284.684 260.46 284.775 260.811 284.775 261.212C284.775 261.432 284.737 261.655 284.662 261.882C284.59 262.105 284.488 262.329 284.358 262.552C284.231 262.775 284.081 262.995 283.91 263.211C283.741 263.428 283.561 263.641 283.369 263.85L281.36 266.029H285.12ZM290.849 262.464V263.608C290.849 264.223 290.794 264.741 290.684 265.164C290.574 265.586 290.416 265.926 290.21 266.184C290.004 266.441 289.755 266.628 289.463 266.745C289.174 266.858 288.848 266.915 288.484 266.915C288.196 266.915 287.929 266.879 287.686 266.807C287.442 266.735 287.222 266.62 287.026 266.462C286.834 266.3 286.669 266.091 286.532 265.833C286.394 265.576 286.29 265.263 286.217 264.896C286.145 264.528 286.109 264.099 286.109 263.608V262.464C286.109 261.85 286.164 261.334 286.274 260.919C286.387 260.503 286.547 260.17 286.753 259.919C286.959 259.665 287.206 259.483 287.495 259.373C287.787 259.263 288.113 259.209 288.474 259.209C288.766 259.209 289.034 259.245 289.277 259.317C289.525 259.385 289.744 259.497 289.937 259.652C290.129 259.803 290.292 260.005 290.426 260.259C290.564 260.51 290.668 260.818 290.74 261.182C290.813 261.546 290.849 261.973 290.849 262.464ZM289.89 263.762V262.305C289.89 261.968 289.87 261.673 289.829 261.419C289.791 261.161 289.734 260.941 289.659 260.759C289.583 260.577 289.487 260.429 289.37 260.316C289.257 260.203 289.125 260.12 288.973 260.069C288.826 260.014 288.659 259.986 288.474 259.986C288.247 259.986 288.046 260.029 287.871 260.115C287.696 260.198 287.548 260.33 287.428 260.512C287.311 260.694 287.222 260.933 287.16 261.228C287.098 261.523 287.067 261.882 287.067 262.305V263.762C287.067 264.099 287.086 264.396 287.124 264.654C287.165 264.911 287.225 265.134 287.304 265.323C287.383 265.509 287.48 265.662 287.593 265.782C287.706 265.902 287.837 265.991 287.984 266.05C288.135 266.105 288.302 266.132 288.484 266.132C288.718 266.132 288.922 266.087 289.097 265.998C289.272 265.909 289.418 265.77 289.535 265.581C289.655 265.389 289.744 265.143 289.803 264.844C289.861 264.542 289.89 264.181 289.89 263.762ZM296.989 266.029V266.812H292.08V266.127L294.537 263.392C294.839 263.055 295.073 262.77 295.238 262.536C295.406 262.299 295.523 262.088 295.588 261.903C295.657 261.714 295.691 261.522 295.691 261.326C295.691 261.079 295.64 260.855 295.536 260.656C295.437 260.453 295.289 260.292 295.093 260.172C294.898 260.052 294.661 259.992 294.383 259.992C294.049 259.992 293.771 260.057 293.548 260.187C293.328 260.314 293.163 260.493 293.053 260.723C292.944 260.953 292.889 261.218 292.889 261.516H291.936C291.936 261.094 292.028 260.708 292.214 260.357C292.399 260.007 292.674 259.729 293.038 259.523C293.402 259.313 293.85 259.209 294.383 259.209C294.856 259.209 295.262 259.293 295.598 259.461C295.935 259.626 296.192 259.859 296.371 260.162C296.553 260.46 296.644 260.811 296.644 261.212C296.644 261.432 296.606 261.655 296.531 261.882C296.459 262.105 296.357 262.329 296.227 262.552C296.1 262.775 295.95 262.995 295.779 263.211C295.61 263.428 295.43 263.641 295.238 263.85L293.229 266.029H296.989ZM301.141 259.27V266.812H300.188V260.46L298.267 261.161V260.301L300.992 259.27H301.141Z" fill="#0E0F16"/>
<path d="M156.758 266.029V266.812H151.849V266.127L154.306 263.392C154.608 263.055 154.842 262.77 155.007 262.536C155.175 262.299 155.292 262.088 155.357 261.903C155.426 261.714 155.46 261.522 155.46 261.326C155.46 261.079 155.409 260.855 155.306 260.656C155.206 260.453 155.058 260.292 154.863 260.172C154.667 260.052 154.43 259.992 154.152 259.992C153.819 259.992 153.54 260.057 153.317 260.187C153.097 260.314 152.932 260.493 152.823 260.723C152.713 260.953 152.658 261.218 152.658 261.516H151.705C151.705 261.094 151.797 260.708 151.983 260.357C152.168 260.007 152.443 259.729 152.807 259.523C153.171 259.313 153.619 259.209 154.152 259.209C154.626 259.209 155.031 259.293 155.367 259.461C155.704 259.626 155.962 259.859 156.14 260.162C156.322 260.46 156.413 260.811 156.413 261.212C156.413 261.432 156.375 261.655 156.3 261.882C156.228 262.105 156.126 262.329 155.996 262.552C155.869 262.775 155.719 262.995 155.548 263.211C155.379 263.428 155.199 263.641 155.007 263.85L152.998 266.029H156.758ZM162.487 262.464V263.608C162.487 264.223 162.432 264.741 162.322 265.164C162.212 265.586 162.054 265.926 161.848 266.184C161.642 266.441 161.393 266.628 161.101 266.745C160.813 266.858 160.486 266.915 160.122 266.915C159.834 266.915 159.568 266.879 159.324 266.807C159.08 266.735 158.86 266.62 158.664 266.462C158.472 266.3 158.307 266.091 158.17 265.833C158.032 265.576 157.928 265.263 157.856 264.896C157.783 264.528 157.747 264.099 157.747 263.608V262.464C157.747 261.85 157.802 261.334 157.912 260.919C158.026 260.503 158.185 260.17 158.391 259.919C158.597 259.665 158.845 259.483 159.133 259.373C159.425 259.263 159.751 259.209 160.112 259.209C160.404 259.209 160.672 259.245 160.916 259.317C161.163 259.385 161.383 259.497 161.575 259.652C161.767 259.803 161.93 260.005 162.064 260.259C162.202 260.51 162.306 260.818 162.379 261.182C162.451 261.546 162.487 261.973 162.487 262.464ZM161.529 263.762V262.305C161.529 261.968 161.508 261.673 161.467 261.419C161.429 261.161 161.372 260.941 161.297 260.759C161.221 260.577 161.125 260.429 161.008 260.316C160.895 260.203 160.763 260.12 160.612 260.069C160.464 260.014 160.297 259.986 160.112 259.986C159.885 259.986 159.684 260.029 159.509 260.115C159.334 260.198 159.186 260.33 159.066 260.512C158.949 260.694 158.86 260.933 158.798 261.228C158.737 261.523 158.706 261.882 158.706 262.305V263.762C158.706 264.099 158.724 264.396 158.762 264.654C158.803 264.911 158.864 265.134 158.943 265.323C159.022 265.509 159.118 265.662 159.231 265.782C159.344 265.902 159.475 265.991 159.623 266.05C159.774 266.105 159.94 266.132 160.122 266.132C160.356 266.132 160.56 266.087 160.735 265.998C160.91 265.909 161.056 265.77 161.173 265.581C161.293 265.389 161.383 265.143 161.441 264.844C161.499 264.542 161.529 264.181 161.529 263.762ZM166.845 259.27V266.812H165.892V260.46L163.97 261.161V260.301L166.696 259.27H166.845ZM170.595 266.014H170.693C171.243 266.014 171.689 265.936 172.033 265.782C172.376 265.627 172.64 265.42 172.826 265.159C173.011 264.897 173.138 264.604 173.207 264.278C173.276 263.948 173.31 263.61 173.31 263.263V262.114C173.31 261.774 173.271 261.472 173.192 261.207C173.116 260.943 173.01 260.721 172.872 260.543C172.738 260.364 172.585 260.229 172.414 260.136C172.242 260.043 172.06 259.997 171.868 259.997C171.648 259.997 171.45 260.041 171.275 260.131C171.104 260.216 170.958 260.338 170.837 260.496C170.721 260.654 170.631 260.84 170.57 261.053C170.508 261.266 170.477 261.498 170.477 261.748C170.477 261.971 170.504 262.188 170.559 262.397C170.614 262.607 170.698 262.796 170.812 262.964C170.925 263.132 171.066 263.266 171.234 263.366C171.406 263.462 171.607 263.51 171.837 263.51C172.05 263.51 172.249 263.469 172.434 263.386C172.623 263.301 172.79 263.185 172.934 263.041C173.082 262.894 173.198 262.727 173.284 262.542C173.374 262.356 173.425 262.162 173.439 261.959H173.892C173.892 262.244 173.836 262.526 173.722 262.804C173.612 263.079 173.458 263.33 173.259 263.556C173.059 263.783 172.826 263.965 172.558 264.102C172.29 264.236 171.998 264.303 171.682 264.303C171.311 264.303 170.99 264.231 170.719 264.087C170.448 263.943 170.224 263.75 170.049 263.51C169.877 263.27 169.749 263.002 169.663 262.706C169.58 262.408 169.539 262.105 169.539 261.8C169.539 261.443 169.589 261.108 169.689 260.795C169.788 260.483 169.936 260.208 170.132 259.971C170.327 259.731 170.57 259.543 170.858 259.409C171.15 259.275 171.486 259.209 171.868 259.209C172.297 259.209 172.663 259.294 172.965 259.466C173.267 259.638 173.513 259.868 173.702 260.156C173.894 260.445 174.035 260.769 174.124 261.13C174.213 261.491 174.258 261.862 174.258 262.243V262.588C174.258 262.976 174.232 263.371 174.181 263.773C174.133 264.171 174.038 264.552 173.897 264.916C173.76 265.28 173.559 265.607 173.295 265.895C173.03 266.18 172.685 266.407 172.259 266.575C171.837 266.74 171.315 266.822 170.693 266.822H170.595V266.014Z" fill="#0E0F16"/>
<path d="M220.939 266.029V266.812H216.03V266.127L218.487 263.392C218.79 263.055 219.023 262.77 219.188 262.536C219.356 262.299 219.473 262.088 219.538 261.903C219.607 261.714 219.641 261.522 219.641 261.326C219.641 261.079 219.59 260.855 219.487 260.656C219.387 260.453 219.239 260.292 219.044 260.172C218.848 260.052 218.611 259.992 218.333 259.992C218 259.992 217.722 260.057 217.498 260.187C217.278 260.314 217.114 260.493 217.004 260.723C216.894 260.953 216.839 261.218 216.839 261.516H215.886C215.886 261.094 215.979 260.708 216.164 260.357C216.349 260.007 216.624 259.729 216.988 259.523C217.352 259.313 217.8 259.209 218.333 259.209C218.807 259.209 219.212 259.293 219.549 259.461C219.885 259.626 220.143 259.859 220.321 260.162C220.503 260.46 220.594 260.811 220.594 261.212C220.594 261.432 220.557 261.655 220.481 261.882C220.409 262.105 220.308 262.329 220.177 262.552C220.05 262.775 219.901 262.995 219.729 263.211C219.561 263.428 219.38 263.641 219.188 263.85L217.179 266.029H220.939ZM226.668 262.464V263.608C226.668 264.223 226.613 264.741 226.503 265.164C226.393 265.586 226.235 265.926 226.029 266.184C225.823 266.441 225.574 266.628 225.282 266.745C224.994 266.858 224.667 266.915 224.303 266.915C224.015 266.915 223.749 266.879 223.505 266.807C223.261 266.735 223.041 266.62 222.846 266.462C222.653 266.3 222.488 266.091 222.351 265.833C222.214 265.576 222.109 265.263 222.037 264.896C221.965 264.528 221.929 264.099 221.929 263.608V262.464C221.929 261.85 221.984 261.334 222.093 260.919C222.207 260.503 222.366 260.17 222.573 259.919C222.779 259.665 223.026 259.483 223.314 259.373C223.606 259.263 223.932 259.209 224.293 259.209C224.585 259.209 224.853 259.245 225.097 259.317C225.344 259.385 225.564 259.497 225.756 259.652C225.948 259.803 226.112 260.005 226.246 260.259C226.383 260.51 226.488 260.818 226.56 261.182C226.632 261.546 226.668 261.973 226.668 262.464ZM225.71 263.762V262.305C225.71 261.968 225.689 261.673 225.648 261.419C225.61 261.161 225.554 260.941 225.478 260.759C225.402 260.577 225.306 260.429 225.189 260.316C225.076 260.203 224.944 260.12 224.793 260.069C224.645 260.014 224.479 259.986 224.293 259.986C224.066 259.986 223.866 260.029 223.69 260.115C223.515 260.198 223.368 260.33 223.247 260.512C223.131 260.694 223.041 260.933 222.979 261.228C222.918 261.523 222.887 261.882 222.887 262.305V263.762C222.887 264.099 222.906 264.396 222.943 264.654C222.985 264.911 223.045 265.134 223.124 265.323C223.203 265.509 223.299 265.662 223.412 265.782C223.526 265.902 223.656 265.991 223.804 266.05C223.955 266.105 224.121 266.132 224.303 266.132C224.537 266.132 224.741 266.087 224.916 265.998C225.092 265.909 225.238 265.77 225.354 265.581C225.475 265.389 225.564 265.143 225.622 264.844C225.681 264.542 225.71 264.181 225.71 263.762ZM232.809 266.029V266.812H227.899V266.127L230.356 263.392C230.659 263.055 230.892 262.77 231.057 262.536C231.225 262.299 231.342 262.088 231.407 261.903C231.476 261.714 231.51 261.522 231.51 261.326C231.51 261.079 231.459 260.855 231.356 260.656C231.256 260.453 231.109 260.292 230.913 260.172C230.717 260.052 230.48 259.992 230.202 259.992C229.869 259.992 229.591 260.057 229.367 260.187C229.148 260.314 228.983 260.493 228.873 260.723C228.763 260.953 228.708 261.218 228.708 261.516H227.755C227.755 261.094 227.848 260.708 228.033 260.357C228.219 260.007 228.493 259.729 228.857 259.523C229.221 259.313 229.67 259.209 230.202 259.209C230.676 259.209 231.081 259.293 231.418 259.461C231.754 259.626 232.012 259.859 232.19 260.162C232.372 260.46 232.463 260.811 232.463 261.212C232.463 261.432 232.426 261.655 232.35 261.882C232.278 262.105 232.177 262.329 232.046 262.552C231.919 262.775 231.77 262.995 231.598 263.211C231.43 263.428 231.249 263.641 231.057 263.85L229.048 266.029H232.809ZM238.537 262.464V263.608C238.537 264.223 238.482 264.741 238.372 265.164C238.262 265.586 238.104 265.926 237.898 266.184C237.692 266.441 237.443 266.628 237.151 266.745C236.863 266.858 236.537 266.915 236.172 266.915C235.884 266.915 235.618 266.879 235.374 266.807C235.13 266.735 234.91 266.62 234.715 266.462C234.522 266.3 234.357 266.091 234.22 265.833C234.083 265.576 233.978 265.263 233.906 264.896C233.834 264.528 233.798 264.099 233.798 263.608V262.464C233.798 261.85 233.853 261.334 233.962 260.919C234.076 260.503 234.236 260.17 234.442 259.919C234.648 259.665 234.895 259.483 235.183 259.373C235.475 259.263 235.802 259.209 236.162 259.209C236.454 259.209 236.722 259.245 236.966 259.317C237.213 259.385 237.433 259.497 237.625 259.652C237.818 259.803 237.981 260.005 238.115 260.259C238.252 260.51 238.357 260.818 238.429 261.182C238.501 261.546 238.537 261.973 238.537 262.464ZM237.579 263.762V262.305C237.579 261.968 237.558 261.673 237.517 261.419C237.479 261.161 237.423 260.941 237.347 260.759C237.271 260.577 237.175 260.429 237.059 260.316C236.945 260.203 236.813 260.12 236.662 260.069C236.514 260.014 236.348 259.986 236.162 259.986C235.936 259.986 235.735 260.029 235.559 260.115C235.384 260.198 235.237 260.33 235.116 260.512C235 260.694 234.91 260.933 234.849 261.228C234.787 261.523 234.756 261.882 234.756 262.305V263.762C234.756 264.099 234.775 264.396 234.812 264.654C234.854 264.911 234.914 265.134 234.993 265.323C235.072 265.509 235.168 265.662 235.281 265.782C235.395 265.902 235.525 265.991 235.673 266.05C235.824 266.105 235.99 266.132 236.172 266.132C236.406 266.132 236.61 266.087 236.785 265.998C236.961 265.909 237.107 265.77 237.223 265.581C237.344 265.389 237.433 265.143 237.491 264.844C237.55 264.542 237.579 264.181 237.579 263.762Z" fill="#0E0F16"/>
<path d="M92.5777 266.029V266.812H87.6683V266.127L90.1255 263.392C90.4278 263.055 90.6613 262.77 90.8261 262.536C90.9944 262.299 91.1112 262.088 91.1765 261.903C91.2451 261.714 91.2795 261.522 91.2795 261.326C91.2795 261.079 91.228 260.855 91.1249 260.656C91.0253 260.453 90.8777 260.292 90.6819 260.172C90.4861 260.052 90.2492 259.992 89.971 259.992C89.6379 259.992 89.3597 260.057 89.1365 260.187C88.9167 260.314 88.7518 260.493 88.6419 260.723C88.532 260.953 88.4771 261.218 88.4771 261.516H87.524C87.524 261.094 87.6168 260.708 87.8022 260.357C87.9877 260.007 88.2624 259.729 88.6265 259.523C88.9905 259.313 89.4387 259.209 89.971 259.209C90.4449 259.209 90.8502 259.293 91.1868 259.461C91.5233 259.626 91.7809 259.859 91.9595 260.162C92.1415 260.46 92.2325 260.811 92.2325 261.212C92.2325 261.432 92.1947 261.655 92.1192 261.882C92.0471 262.105 91.9457 262.329 91.8152 262.552C91.6882 262.775 91.5388 262.995 91.3671 263.211C91.1988 263.428 91.0185 263.641 90.8261 263.85L88.8171 266.029H92.5777ZM98.3061 262.464V263.608C98.3061 264.223 98.2512 264.741 98.1413 265.164C98.0314 265.586 97.8734 265.926 97.6673 266.184C97.4613 266.441 97.2123 266.628 96.9204 266.745C96.6319 266.858 96.3056 266.915 95.9416 266.915C95.6531 266.915 95.3869 266.879 95.1431 266.807C94.8993 266.735 94.6795 266.62 94.4837 266.462C94.2914 266.3 94.1265 266.091 93.9892 265.833C93.8518 265.576 93.7471 265.263 93.6749 264.896C93.6028 264.528 93.5667 264.099 93.5667 263.608V262.464C93.5667 261.85 93.6217 261.334 93.7316 260.919C93.8449 260.503 94.0046 260.17 94.2107 259.919C94.4167 259.665 94.664 259.483 94.9525 259.373C95.2444 259.263 95.5707 259.209 95.9313 259.209C96.2232 259.209 96.4911 259.245 96.7349 259.317C96.9822 259.385 97.202 259.497 97.3943 259.652C97.5866 259.803 97.7498 260.005 97.8837 260.259C98.0211 260.51 98.1258 260.818 98.1979 261.182C98.2701 261.546 98.3061 261.973 98.3061 262.464ZM97.348 263.762V262.305C97.348 261.968 97.3273 261.673 97.2861 261.419C97.2484 261.161 97.1917 260.941 97.1161 260.759C97.0406 260.577 96.9444 260.429 96.8276 260.316C96.7143 260.203 96.5821 260.12 96.431 260.069C96.2833 260.014 96.1167 259.986 95.9313 259.986C95.7046 259.986 95.5037 260.029 95.3286 260.115C95.1534 260.198 95.0057 260.33 94.8855 260.512C94.7688 260.694 94.6795 260.933 94.6177 261.228C94.5558 261.523 94.5249 261.882 94.5249 262.305V263.762C94.5249 264.099 94.5438 264.396 94.5816 264.654C94.6228 264.911 94.6829 265.134 94.7619 265.323C94.8409 265.509 94.937 265.662 95.0504 265.782C95.1637 265.902 95.2942 265.991 95.4419 266.05C95.593 266.105 95.7596 266.132 95.9416 266.132C96.1751 266.132 96.3795 266.087 96.5546 265.998C96.7298 265.909 96.8757 265.77 96.9925 265.581C97.1127 265.389 97.202 265.143 97.2604 264.844C97.3188 264.542 97.348 264.181 97.348 263.762ZM102.664 259.27V266.812H101.711V260.46L99.7898 261.161V260.301L102.515 259.27H102.664ZM110.196 264.782C110.196 265.239 110.089 265.627 109.876 265.947C109.667 266.263 109.382 266.503 109.021 266.668C108.664 266.833 108.261 266.915 107.811 266.915C107.361 266.915 106.956 266.833 106.595 266.668C106.234 266.503 105.949 266.263 105.74 265.947C105.53 265.627 105.426 265.239 105.426 264.782C105.426 264.484 105.482 264.211 105.596 263.963C105.712 263.713 105.875 263.495 106.085 263.309C106.298 263.124 106.549 262.981 106.837 262.882C107.129 262.779 107.45 262.727 107.8 262.727C108.261 262.727 108.671 262.816 109.032 262.995C109.392 263.17 109.675 263.412 109.882 263.721C110.091 264.03 110.196 264.384 110.196 264.782ZM109.238 264.762C109.238 264.484 109.178 264.238 109.057 264.025C108.937 263.809 108.769 263.641 108.552 263.52C108.336 263.4 108.085 263.34 107.8 263.34C107.508 263.34 107.256 263.4 107.043 263.52C106.834 263.641 106.67 263.809 106.554 264.025C106.437 264.238 106.379 264.484 106.379 264.762C106.379 265.05 106.435 265.298 106.549 265.504C106.665 265.706 106.83 265.863 107.043 265.972C107.259 266.079 107.515 266.132 107.811 266.132C108.106 266.132 108.36 266.079 108.573 265.972C108.786 265.863 108.949 265.706 109.062 265.504C109.179 265.298 109.238 265.05 109.238 264.762ZM110.021 261.264C110.021 261.628 109.924 261.956 109.732 262.248C109.54 262.54 109.277 262.77 108.944 262.938C108.611 263.106 108.233 263.191 107.811 263.191C107.381 263.191 106.998 263.106 106.662 262.938C106.329 262.77 106.068 262.54 105.879 262.248C105.69 261.956 105.596 261.628 105.596 261.264C105.596 260.828 105.69 260.457 105.879 260.151C106.071 259.846 106.334 259.612 106.667 259.451C107 259.289 107.38 259.209 107.806 259.209C108.235 259.209 108.616 259.289 108.949 259.451C109.282 259.612 109.543 259.846 109.732 260.151C109.924 260.457 110.021 260.828 110.021 261.264ZM109.068 261.279C109.068 261.029 109.014 260.807 108.908 260.615C108.801 260.423 108.654 260.271 108.465 260.162C108.276 260.048 108.056 259.992 107.806 259.992C107.555 259.992 107.335 260.045 107.146 260.151C106.961 260.254 106.815 260.402 106.708 260.594C106.605 260.787 106.554 261.015 106.554 261.279C106.554 261.537 106.605 261.762 106.708 261.954C106.815 262.147 106.962 262.296 107.151 262.402C107.34 262.509 107.56 262.562 107.811 262.562C108.061 262.562 108.279 262.509 108.465 262.402C108.654 262.296 108.801 262.147 108.908 261.954C109.014 261.762 109.068 261.537 109.068 261.279Z" fill="#0E0F16"/>
<path d="M38.6396 232.599V234.171H37.8669V232.599H38.6396ZM38.5469 241.012V242.387H37.7793V241.012H38.5469ZM39.5772 239.384C39.5772 239.178 39.5308 238.992 39.4381 238.827C39.3453 238.663 39.1925 238.512 38.9796 238.374C38.7667 238.237 38.4816 238.11 38.1244 237.993C37.6917 237.859 37.3174 237.696 37.0014 237.504C36.6889 237.311 36.4468 237.073 36.2751 236.788C36.1068 236.502 36.0226 236.157 36.0226 235.752C36.0226 235.33 36.1136 234.966 36.2957 234.66C36.4777 234.354 36.7353 234.119 37.0684 233.954C37.4015 233.789 37.793 233.707 38.2429 233.707C38.5932 233.707 38.9058 233.76 39.1805 233.867C39.4552 233.97 39.6871 234.124 39.876 234.33C40.0683 234.536 40.2142 234.789 40.3138 235.088C40.4169 235.386 40.4684 235.731 40.4684 236.123H39.5205C39.5205 235.893 39.493 235.682 39.4381 235.489C39.3831 235.297 39.3007 235.13 39.1908 234.99C39.0809 234.845 38.947 234.735 38.789 234.66C38.631 234.581 38.449 234.541 38.2429 234.541C37.9544 234.541 37.7158 234.591 37.5269 234.691C37.3414 234.79 37.204 234.931 37.1147 235.113C37.0255 235.292 36.9808 235.5 36.9808 235.737C36.9808 235.956 37.0255 236.149 37.1147 236.314C37.204 236.478 37.3552 236.628 37.5681 236.762C37.7844 236.892 38.0815 237.021 38.4593 237.148C38.9023 237.289 39.2784 237.455 39.5875 237.648C39.8966 237.837 40.1318 238.07 40.2932 238.348C40.4546 238.623 40.5353 238.965 40.5353 239.374C40.5353 239.817 40.4358 240.191 40.2366 240.497C40.0374 240.799 39.7575 241.029 39.3969 241.187C39.0363 241.345 38.6138 241.424 38.1296 241.424C37.8377 241.424 37.5492 241.384 37.2641 241.305C36.9791 241.226 36.7215 241.098 36.4914 240.919C36.2613 240.737 36.0776 240.498 35.9402 240.203C35.8028 239.904 35.7341 239.538 35.7341 239.106H36.6923C36.6923 239.398 36.7335 239.64 36.816 239.832C36.9018 240.021 37.0152 240.172 37.156 240.285C37.2968 240.395 37.4513 240.474 37.6196 240.522C37.7913 240.567 37.9613 240.589 38.1296 240.589C38.4387 240.589 38.6997 240.541 38.9126 240.445C39.129 240.345 39.2938 240.205 39.4072 240.023C39.5205 239.841 39.5772 239.628 39.5772 239.384ZM49.4114 238.791V239.574H43.992V239.013L47.3508 233.815H48.1287L47.2941 235.319L45.0738 238.791H49.4114ZM48.3656 233.815V241.316H47.4126V233.815H48.3656ZM57.6023 236.968V238.111C57.6023 238.726 57.5473 239.245 57.4374 239.667C57.3275 240.09 57.1695 240.43 56.9635 240.687C56.7574 240.945 56.5084 241.132 56.2165 241.249C55.928 241.362 55.6018 241.419 55.2377 241.419C54.9492 241.419 54.6831 241.383 54.4393 241.311C54.1954 241.238 53.9756 241.123 53.7799 240.965C53.5875 240.804 53.4227 240.594 53.2853 240.337C53.1479 240.079 53.0432 239.767 52.9711 239.399C52.899 239.032 52.8629 238.603 52.8629 238.111V236.968C52.8629 236.353 52.9178 235.838 53.0277 235.422C53.1411 235.007 53.3008 234.674 53.5068 234.423C53.7129 234.169 53.9602 233.987 54.2486 233.877C54.5406 233.767 54.8668 233.712 55.2274 233.712C55.5193 233.712 55.7872 233.748 56.0311 233.82C56.2783 233.889 56.4981 234.001 56.6905 234.155C56.8828 234.306 57.0459 234.509 57.1798 234.763C57.3172 235.014 57.422 235.321 57.4941 235.685C57.5662 236.049 57.6023 236.477 57.6023 236.968ZM56.6441 238.266V236.808C56.6441 236.472 56.6235 236.176 56.5823 235.922C56.5445 235.664 56.4878 235.445 56.4123 235.263C56.3367 235.081 56.2406 234.933 56.1238 234.82C56.0105 234.706 55.8782 234.624 55.7271 234.572C55.5794 234.517 55.4129 234.49 55.2274 234.49C55.0008 234.49 54.7999 234.533 54.6247 234.619C54.4496 234.701 54.3019 234.833 54.1817 235.015C54.0649 235.197 53.9756 235.436 53.9138 235.731C53.852 236.027 53.8211 236.386 53.8211 236.808V238.266C53.8211 238.603 53.84 238.9 53.8777 239.157C53.9189 239.415 53.979 239.638 54.058 239.827C54.137 240.012 54.2332 240.165 54.3465 240.285C54.4599 240.406 54.5904 240.495 54.738 240.553C54.8891 240.608 55.0557 240.636 55.2377 240.636C55.4713 240.636 55.6756 240.591 55.8508 240.502C56.0259 240.412 56.1719 240.273 56.2886 240.084C56.4088 239.892 56.4981 239.647 56.5565 239.348C56.6149 239.046 56.6441 238.685 56.6441 238.266ZM63.5368 236.968V238.111C63.5368 238.726 63.4819 239.245 63.372 239.667C63.2621 240.09 63.1041 240.43 62.898 240.687C62.692 240.945 62.443 241.132 62.151 241.249C61.8626 241.362 61.5363 241.419 61.1723 241.419C60.8838 241.419 60.6176 241.383 60.3738 241.311C60.1299 241.238 59.9101 241.123 59.7144 240.965C59.5221 240.804 59.3572 240.594 59.2198 240.337C59.0825 240.079 58.9777 239.767 58.9056 239.399C58.8335 239.032 58.7974 238.603 58.7974 238.111V236.968C58.7974 236.353 58.8524 235.838 58.9623 235.422C59.0756 235.007 59.2353 234.674 59.4414 234.423C59.6474 234.169 59.8947 233.987 60.1832 233.877C60.4751 233.767 60.8014 233.712 61.162 233.712C61.4539 233.712 61.7218 233.748 61.9656 233.82C62.2129 233.889 62.4327 234.001 62.625 234.155C62.8173 234.306 62.9804 234.509 63.1144 234.763C63.2518 235.014 63.3565 235.321 63.4286 235.685C63.5007 236.049 63.5368 236.477 63.5368 236.968ZM62.5786 238.266V236.808C62.5786 236.472 62.558 236.176 62.5168 235.922C62.479 235.664 62.4224 235.445 62.3468 235.263C62.2713 235.081 62.1751 234.933 62.0583 234.82C61.945 234.706 61.8128 234.624 61.6617 234.572C61.514 234.517 61.3474 234.49 61.162 234.49C60.9353 234.49 60.7344 234.533 60.5592 234.619C60.3841 234.701 60.2364 234.833 60.1162 235.015C59.9994 235.197 59.9101 235.436 59.8483 235.731C59.7865 236.027 59.7556 236.386 59.7556 236.808V238.266C59.7556 238.603 59.7745 238.9 59.8123 239.157C59.8535 239.415 59.9136 239.638 59.9926 239.827C60.0716 240.012 60.1677 240.165 60.2811 240.285C60.3944 240.406 60.5249 240.495 60.6726 240.553C60.8237 240.608 60.9902 240.636 61.1723 240.636C61.4058 240.636 61.6101 240.591 61.7853 240.502C61.9604 240.412 62.1064 240.273 62.2232 240.084C62.3434 239.892 62.4327 239.647 62.491 239.348C62.5494 239.046 62.5786 238.685 62.5786 238.266ZM69.4713 236.968V238.111C69.4713 238.726 69.4164 239.245 69.3065 239.667C69.1966 240.09 69.0386 240.43 68.8325 240.687C68.6265 240.945 68.3775 241.132 68.0856 241.249C67.7971 241.362 67.4708 241.419 67.1068 241.419C66.8183 241.419 66.5522 241.383 66.3083 241.311C66.0645 241.238 65.8447 241.123 65.6489 240.965C65.4566 240.804 65.2917 240.594 65.1544 240.337C65.017 240.079 64.9123 239.767 64.8401 239.399C64.768 239.032 64.732 238.603 64.732 238.111V236.968C64.732 236.353 64.7869 235.838 64.8968 235.422C65.0101 235.007 65.1698 234.674 65.3759 234.423C65.582 234.169 65.8292 233.987 66.1177 233.877C66.4096 233.767 66.7359 233.712 67.0965 233.712C67.3884 233.712 67.6563 233.748 67.9001 233.82C68.1474 233.889 68.3672 234.001 68.5595 234.155C68.7518 234.306 68.915 234.509 69.0489 234.763C69.1863 235.014 69.291 235.321 69.3632 235.685C69.4353 236.049 69.4713 236.477 69.4713 236.968ZM68.5132 238.266V236.808C68.5132 236.472 68.4925 236.176 68.4513 235.922C68.4136 235.664 68.3569 235.445 68.2813 235.263C68.2058 235.081 68.1096 234.933 67.9929 234.82C67.8795 234.706 67.7473 234.624 67.5962 234.572C67.4485 234.517 67.2819 234.49 67.0965 234.49C66.8698 234.49 66.6689 234.533 66.4938 234.619C66.3186 234.701 66.1709 234.833 66.0507 235.015C65.934 235.197 65.8447 235.436 65.7829 235.731C65.721 236.027 65.6901 236.386 65.6901 236.808V238.266C65.6901 238.603 65.709 238.9 65.7468 239.157C65.788 239.415 65.8481 239.638 65.9271 239.827C66.0061 240.012 66.1023 240.165 66.2156 240.285C66.3289 240.406 66.4594 240.495 66.6071 240.553C66.7582 240.608 66.9248 240.636 67.1068 240.636C67.3403 240.636 67.5447 240.591 67.7198 240.502C67.895 240.412 68.0409 240.273 68.1577 240.084C68.2779 239.892 68.3672 239.647 68.4256 239.348C68.484 239.046 68.5132 238.685 68.5132 238.266Z" fill="#0E0F16"/>
<path d="M38.6396 193.915V195.486H37.8669V193.915H38.6396ZM38.5469 202.327V203.703H37.7793V202.327H38.5469ZM39.5772 200.699C39.5772 200.493 39.5308 200.308 39.4381 200.143C39.3453 199.978 39.1925 199.827 38.9796 199.69C38.7667 199.552 38.4816 199.425 38.1244 199.309C37.6917 199.175 37.3174 199.011 37.0014 198.819C36.6889 198.627 36.4468 198.388 36.2751 198.103C36.1068 197.818 36.0226 197.473 36.0226 197.068C36.0226 196.645 36.1136 196.281 36.2957 195.975C36.4777 195.67 36.7353 195.435 37.0684 195.27C37.4015 195.105 37.793 195.022 38.2429 195.022C38.5932 195.022 38.9058 195.076 39.1805 195.182C39.4552 195.285 39.6871 195.44 39.876 195.646C40.0683 195.852 40.2142 196.104 40.3138 196.403C40.4169 196.702 40.4684 197.047 40.4684 197.439H39.5205C39.5205 197.208 39.493 196.997 39.4381 196.805C39.3831 196.613 39.3007 196.446 39.1908 196.305C39.0809 196.161 38.947 196.051 38.789 195.975C38.631 195.896 38.449 195.857 38.2429 195.857C37.9544 195.857 37.7158 195.907 37.5269 196.006C37.3414 196.106 37.204 196.247 37.1147 196.429C37.0255 196.607 36.9808 196.815 36.9808 197.052C36.9808 197.272 37.0255 197.464 37.1147 197.629C37.204 197.794 37.3552 197.943 37.5681 198.077C37.7844 198.208 38.0815 198.337 38.4593 198.464C38.9023 198.604 39.2784 198.771 39.5875 198.963C39.8966 199.152 40.1318 199.386 40.2932 199.664C40.4546 199.939 40.5353 200.28 40.5353 200.689C40.5353 201.132 40.4358 201.506 40.2366 201.812C40.0374 202.114 39.7575 202.344 39.3969 202.502C39.0363 202.66 38.6138 202.739 38.1296 202.739C37.8377 202.739 37.5492 202.7 37.2641 202.621C36.9791 202.542 36.7215 202.413 36.4914 202.235C36.2613 202.053 36.0776 201.814 35.9402 201.519C35.8028 201.22 35.7341 200.854 35.7341 200.421H36.6923C36.6923 200.713 36.7335 200.955 36.816 201.148C36.9018 201.336 37.0152 201.488 37.156 201.601C37.2968 201.711 37.4513 201.79 37.6196 201.838C37.7913 201.883 37.9613 201.905 38.1296 201.905C38.4387 201.905 38.6997 201.857 38.9126 201.761C39.129 201.661 39.2938 201.52 39.4072 201.338C39.5205 201.156 39.5772 200.943 39.5772 200.699ZM47.9999 195.12H48.0823V195.929H47.9999C47.495 195.929 47.0726 196.012 46.7326 196.176C46.3926 196.338 46.123 196.556 45.9238 196.831C45.7246 197.102 45.5804 197.408 45.4911 197.748C45.4052 198.088 45.3623 198.433 45.3623 198.783V199.885C45.3623 200.219 45.4018 200.514 45.4808 200.772C45.5598 201.026 45.668 201.24 45.8053 201.415C45.9427 201.591 46.0973 201.723 46.269 201.812C46.4441 201.901 46.6261 201.946 46.815 201.946C47.0348 201.946 47.2306 201.905 47.4023 201.822C47.574 201.737 47.7183 201.618 47.835 201.467C47.9552 201.312 48.0462 201.13 48.1081 200.921C48.1699 200.711 48.2008 200.481 48.2008 200.231C48.2008 200.007 48.1733 199.793 48.1184 199.587C48.0634 199.377 47.9793 199.192 47.8659 199.03C47.7526 198.865 47.6101 198.737 47.4384 198.644C47.2701 198.548 47.0692 198.5 46.8356 198.5C46.5712 198.5 46.3239 198.565 46.0938 198.695C45.8672 198.823 45.68 198.991 45.5323 199.2C45.3881 199.406 45.3056 199.631 45.285 199.875L44.7802 199.87C44.8283 199.485 44.9176 199.157 45.0481 198.886C45.182 198.611 45.3468 198.388 45.5426 198.216C45.7418 198.041 45.9633 197.914 46.2071 197.835C46.4544 197.753 46.7154 197.712 46.9902 197.712C47.3645 197.712 47.6873 197.782 47.9587 197.923C48.23 198.064 48.4532 198.252 48.6284 198.489C48.8035 198.723 48.9323 198.987 49.0147 199.283C49.1006 199.575 49.1435 199.875 49.1435 200.184C49.1435 200.538 49.0937 200.869 48.9941 201.179C48.8945 201.488 48.7451 201.759 48.5459 201.992C48.3502 202.226 48.1081 202.408 47.8196 202.538C47.5311 202.669 47.1962 202.734 46.815 202.734C46.4098 202.734 46.056 202.652 45.7538 202.487C45.4516 202.319 45.2009 202.095 45.0017 201.817C44.8025 201.539 44.6531 201.23 44.5535 200.89C44.4539 200.55 44.4041 200.205 44.4041 199.855V199.406C44.4041 198.877 44.4574 198.359 44.5638 197.851C44.6703 197.342 44.854 196.882 45.115 196.47C45.3795 196.058 45.7452 195.73 46.2123 195.486C46.6794 195.242 47.2752 195.12 47.9999 195.12ZM57.6023 198.283V199.427C57.6023 200.042 57.5473 200.56 57.4374 200.983C57.3275 201.405 57.1695 201.745 56.9635 202.003C56.7574 202.26 56.5084 202.447 56.2165 202.564C55.928 202.678 55.6018 202.734 55.2377 202.734C54.9492 202.734 54.6831 202.698 54.4393 202.626C54.1954 202.554 53.9756 202.439 53.7799 202.281C53.5875 202.12 53.4227 201.91 53.2853 201.652C53.1479 201.395 53.0432 201.082 52.9711 200.715C52.899 200.347 52.8629 199.918 52.8629 199.427V198.283C52.8629 197.669 52.9178 197.153 53.0277 196.738C53.1411 196.322 53.3008 195.989 53.5068 195.739C53.7129 195.484 53.9602 195.302 54.2486 195.192C54.5406 195.083 54.8668 195.028 55.2274 195.028C55.5193 195.028 55.7872 195.064 56.0311 195.136C56.2783 195.204 56.4981 195.316 56.6905 195.471C56.8828 195.622 57.0459 195.824 57.1798 196.079C57.3172 196.329 57.422 196.637 57.4941 197.001C57.5662 197.365 57.6023 197.792 57.6023 198.283ZM56.6441 199.582V198.124C56.6441 197.787 56.6235 197.492 56.5823 197.238C56.5445 196.98 56.4878 196.76 56.4123 196.578C56.3367 196.396 56.2406 196.249 56.1238 196.135C56.0105 196.022 55.8782 195.939 55.7271 195.888C55.5794 195.833 55.4129 195.805 55.2274 195.805C55.0008 195.805 54.7999 195.848 54.6247 195.934C54.4496 196.017 54.3019 196.149 54.1817 196.331C54.0649 196.513 53.9756 196.752 53.9138 197.047C53.852 197.342 53.8211 197.701 53.8211 198.124V199.582C53.8211 199.918 53.84 200.215 53.8777 200.473C53.9189 200.73 53.979 200.954 54.058 201.142C54.137 201.328 54.2332 201.481 54.3465 201.601C54.4599 201.721 54.5904 201.81 54.738 201.869C54.8891 201.924 55.0557 201.951 55.2377 201.951C55.4713 201.951 55.6756 201.907 55.8508 201.817C56.0259 201.728 56.1719 201.589 56.2886 201.4C56.4088 201.208 56.4981 200.962 56.5565 200.663C56.6149 200.361 56.6441 200.001 56.6441 199.582ZM63.5368 198.283V199.427C63.5368 200.042 63.4819 200.56 63.372 200.983C63.2621 201.405 63.1041 201.745 62.898 202.003C62.692 202.26 62.443 202.447 62.151 202.564C61.8626 202.678 61.5363 202.734 61.1723 202.734C60.8838 202.734 60.6176 202.698 60.3738 202.626C60.1299 202.554 59.9101 202.439 59.7144 202.281C59.5221 202.12 59.3572 201.91 59.2198 201.652C59.0825 201.395 58.9777 201.082 58.9056 200.715C58.8335 200.347 58.7974 199.918 58.7974 199.427V198.283C58.7974 197.669 58.8524 197.153 58.9623 196.738C59.0756 196.322 59.2353 195.989 59.4414 195.739C59.6474 195.484 59.8947 195.302 60.1832 195.192C60.4751 195.083 60.8014 195.028 61.162 195.028C61.4539 195.028 61.7218 195.064 61.9656 195.136C62.2129 195.204 62.4327 195.316 62.625 195.471C62.8173 195.622 62.9804 195.824 63.1144 196.079C63.2518 196.329 63.3565 196.637 63.4286 197.001C63.5007 197.365 63.5368 197.792 63.5368 198.283ZM62.5786 199.582V198.124C62.5786 197.787 62.558 197.492 62.5168 197.238C62.479 196.98 62.4224 196.76 62.3468 196.578C62.2713 196.396 62.1751 196.249 62.0583 196.135C61.945 196.022 61.8128 195.939 61.6617 195.888C61.514 195.833 61.3474 195.805 61.162 195.805C60.9353 195.805 60.7344 195.848 60.5592 195.934C60.3841 196.017 60.2364 196.149 60.1162 196.331C59.9994 196.513 59.9101 196.752 59.8483 197.047C59.7865 197.342 59.7556 197.701 59.7556 198.124V199.582C59.7556 199.918 59.7745 200.215 59.8123 200.473C59.8535 200.73 59.9136 200.954 59.9926 201.142C60.0716 201.328 60.1677 201.481 60.2811 201.601C60.3944 201.721 60.5249 201.81 60.6726 201.869C60.8237 201.924 60.9902 201.951 61.1723 201.951C61.4058 201.951 61.6101 201.907 61.7853 201.817C61.9604 201.728 62.1064 201.589 62.2232 201.4C62.3434 201.208 62.4327 200.962 62.491 200.663C62.5494 200.361 62.5786 200.001 62.5786 199.582ZM69.4713 198.283V199.427C69.4713 200.042 69.4164 200.56 69.3065 200.983C69.1966 201.405 69.0386 201.745 68.8325 202.003C68.6265 202.26 68.3775 202.447 68.0856 202.564C67.7971 202.678 67.4708 202.734 67.1068 202.734C66.8183 202.734 66.5522 202.698 66.3083 202.626C66.0645 202.554 65.8447 202.439 65.6489 202.281C65.4566 202.12 65.2917 201.91 65.1544 201.652C65.017 201.395 64.9123 201.082 64.8401 200.715C64.768 200.347 64.732 199.918 64.732 199.427V198.283C64.732 197.669 64.7869 197.153 64.8968 196.738C65.0101 196.322 65.1698 195.989 65.3759 195.739C65.582 195.484 65.8292 195.302 66.1177 195.192C66.4096 195.083 66.7359 195.028 67.0965 195.028C67.3884 195.028 67.6563 195.064 67.9001 195.136C68.1474 195.204 68.3672 195.316 68.5595 195.471C68.7518 195.622 68.915 195.824 69.0489 196.079C69.1863 196.329 69.291 196.637 69.3632 197.001C69.4353 197.365 69.4713 197.792 69.4713 198.283ZM68.5132 199.582V198.124C68.5132 197.787 68.4925 197.492 68.4513 197.238C68.4136 196.98 68.3569 196.76 68.2813 196.578C68.2058 196.396 68.1096 196.249 67.9929 196.135C67.8795 196.022 67.7473 195.939 67.5962 195.888C67.4485 195.833 67.2819 195.805 67.0965 195.805C66.8698 195.805 66.6689 195.848 66.4938 195.934C66.3186 196.017 66.1709 196.149 66.0507 196.331C65.934 196.513 65.8447 196.752 65.7829 197.047C65.721 197.342 65.6901 197.701 65.6901 198.124V199.582C65.6901 199.918 65.709 200.215 65.7468 200.473C65.788 200.73 65.8481 200.954 65.9271 201.142C66.0061 201.328 66.1023 201.481 66.2156 201.601C66.3289 201.721 66.4594 201.81 66.6071 201.869C66.7582 201.924 66.9248 201.951 67.1068 201.951C67.3403 201.951 67.5447 201.907 67.7198 201.817C67.895 201.728 68.0409 201.589 68.1577 201.4C68.2779 201.208 68.3672 200.962 68.4256 200.663C68.484 200.361 68.5132 200.001 68.5132 199.582Z" fill="#0E0F16"/>
<path d="M38.6396 155.231V156.802H37.8669V155.231H38.6396ZM38.5469 163.643V165.018H37.7793V163.643H38.5469ZM39.5772 162.015C39.5772 161.809 39.5308 161.624 39.4381 161.459C39.3453 161.294 39.1925 161.143 38.9796 161.005C38.7667 160.868 38.4816 160.741 38.1244 160.624C37.6917 160.49 37.3174 160.327 37.0014 160.135C36.6889 159.942 36.4468 159.704 36.2751 159.419C36.1068 159.134 36.0226 158.789 36.0226 158.383C36.0226 157.961 36.1136 157.597 36.2957 157.291C36.4777 156.986 36.7353 156.75 37.0684 156.585C37.4015 156.421 37.793 156.338 38.2429 156.338C38.5932 156.338 38.9058 156.391 39.1805 156.498C39.4552 156.601 39.6871 156.755 39.876 156.961C40.0683 157.168 40.2142 157.42 40.3138 157.719C40.4169 158.018 40.4684 158.363 40.4684 158.754H39.5205C39.5205 158.524 39.493 158.313 39.4381 158.121C39.3831 157.928 39.3007 157.762 39.1908 157.621C39.0809 157.477 38.947 157.367 38.789 157.291C38.631 157.212 38.449 157.173 38.2429 157.173C37.9544 157.173 37.7158 157.222 37.5269 157.322C37.3414 157.422 37.204 157.562 37.1147 157.744C37.0255 157.923 36.9808 158.131 36.9808 158.368C36.9808 158.588 37.0255 158.78 37.1147 158.945C37.204 159.11 37.3552 159.259 37.5681 159.393C37.7844 159.523 38.0815 159.652 38.4593 159.779C38.9023 159.92 39.2784 160.087 39.5875 160.279C39.8966 160.468 40.1318 160.701 40.2932 160.98C40.4546 161.254 40.5353 161.596 40.5353 162.005C40.5353 162.448 40.4358 162.822 40.2366 163.128C40.0374 163.43 39.7575 163.66 39.3969 163.818C39.0363 163.976 38.6138 164.055 38.1296 164.055C37.8377 164.055 37.5492 164.016 37.2641 163.937C36.9791 163.858 36.7215 163.729 36.4914 163.55C36.2613 163.368 36.0776 163.13 35.9402 162.834C35.8028 162.535 35.7341 162.17 35.7341 161.737H36.6923C36.6923 162.029 36.7335 162.271 36.816 162.463C36.9018 162.652 37.0152 162.803 37.156 162.917C37.2968 163.026 37.4513 163.105 37.6196 163.154C37.7913 163.198 37.9613 163.221 38.1296 163.221C38.4387 163.221 38.6997 163.172 38.9126 163.076C39.129 162.977 39.2938 162.836 39.4072 162.654C39.5205 162.472 39.5772 162.259 39.5772 162.015ZM49.0714 161.917C49.0714 162.374 48.9649 162.762 48.752 163.081C48.5425 163.397 48.2574 163.638 47.8968 163.803C47.5397 163.968 47.1361 164.05 46.6862 164.05C46.2363 164.05 45.8311 163.968 45.4705 163.803C45.1099 163.638 44.8248 163.397 44.6153 163.081C44.4058 162.762 44.3011 162.374 44.3011 161.917C44.3011 161.618 44.3578 161.345 44.4711 161.098C44.5879 160.847 44.751 160.629 44.9605 160.444C45.1734 160.258 45.4241 160.116 45.7126 160.016C46.0045 159.913 46.3256 159.862 46.6759 159.862C47.1361 159.862 47.5465 159.951 47.9071 160.13C48.2678 160.305 48.5511 160.547 48.7571 160.856C48.9666 161.165 49.0714 161.519 49.0714 161.917ZM48.1132 161.897C48.1132 161.618 48.0531 161.373 47.9329 161.16C47.8127 160.944 47.6444 160.775 47.4281 160.655C47.2117 160.535 46.961 160.475 46.6759 160.475C46.384 160.475 46.1316 160.535 45.9187 160.655C45.7092 160.775 45.546 160.944 45.4293 161.16C45.3125 161.373 45.2541 161.618 45.2541 161.897C45.2541 162.185 45.3108 162.432 45.4241 162.638C45.5409 162.841 45.7057 162.997 45.9187 163.107C46.135 163.214 46.3909 163.267 46.6862 163.267C46.9816 163.267 47.2357 163.214 47.4487 163.107C47.6616 162.997 47.8247 162.841 47.9381 162.638C48.0548 162.432 48.1132 162.185 48.1132 161.897ZM48.8962 158.399C48.8962 158.763 48.8001 159.091 48.6077 159.383C48.4154 159.675 48.1527 159.905 47.8196 160.073C47.4864 160.241 47.1087 160.325 46.6862 160.325C46.2569 160.325 45.874 160.241 45.5375 160.073C45.2043 159.905 44.9433 159.675 44.7544 159.383C44.5655 159.091 44.4711 158.763 44.4711 158.399C44.4711 157.963 44.5655 157.592 44.7544 157.286C44.9467 156.98 45.2095 156.747 45.5426 156.585C45.8757 156.424 46.2552 156.343 46.6811 156.343C47.1104 156.343 47.4916 156.424 47.8247 156.585C48.1579 156.747 48.4189 156.98 48.6077 157.286C48.8001 157.592 48.8962 157.963 48.8962 158.399ZM47.9432 158.414C47.9432 158.163 47.89 157.942 47.7835 157.75C47.677 157.557 47.5294 157.406 47.3405 157.296C47.1516 157.183 46.9318 157.126 46.6811 157.126C46.4304 157.126 46.2106 157.18 46.0217 157.286C45.8362 157.389 45.6903 157.537 45.5838 157.729C45.4808 157.921 45.4293 158.15 45.4293 158.414C45.4293 158.672 45.4808 158.897 45.5838 159.089C45.6903 159.281 45.838 159.431 46.0268 159.537C46.2157 159.644 46.4355 159.697 46.6862 159.697C46.9369 159.697 47.155 159.644 47.3405 159.537C47.5294 159.431 47.677 159.281 47.7835 159.089C47.89 158.897 47.9432 158.672 47.9432 158.414ZM57.6023 159.599V160.743C57.6023 161.357 57.5473 161.876 57.4374 162.298C57.3275 162.721 57.1695 163.061 56.9635 163.318C56.7574 163.576 56.5084 163.763 56.2165 163.88C55.928 163.993 55.6018 164.05 55.2377 164.05C54.9492 164.05 54.6831 164.014 54.4393 163.942C54.1954 163.87 53.9756 163.755 53.7799 163.597C53.5875 163.435 53.4227 163.226 53.2853 162.968C53.1479 162.711 53.0432 162.398 52.9711 162.031C52.899 161.663 52.8629 161.234 52.8629 160.743V159.599C52.8629 158.984 52.9178 158.469 53.0277 158.054C53.1411 157.638 53.3008 157.305 53.5068 157.054C53.7129 156.8 53.9602 156.618 54.2486 156.508C54.5406 156.398 54.8668 156.343 55.2274 156.343C55.5193 156.343 55.7872 156.379 56.0311 156.451C56.2783 156.52 56.4981 156.632 56.6905 156.786C56.8828 156.937 57.0459 157.14 57.1798 157.394C57.3172 157.645 57.422 157.952 57.4941 158.316C57.5662 158.68 57.6023 159.108 57.6023 159.599ZM56.6441 160.897V159.439C56.6441 159.103 56.6235 158.807 56.5823 158.553C56.5445 158.296 56.4878 158.076 56.4123 157.894C56.3367 157.712 56.2406 157.564 56.1238 157.451C56.0105 157.338 55.8782 157.255 55.7271 157.204C55.5794 157.149 55.4129 157.121 55.2274 157.121C55.0008 157.121 54.7999 157.164 54.6247 157.25C54.4496 157.332 54.3019 157.465 54.1817 157.647C54.0649 157.829 53.9756 158.067 53.9138 158.363C53.852 158.658 53.8211 159.017 53.8211 159.439V160.897C53.8211 161.234 53.84 161.531 53.8777 161.788C53.9189 162.046 53.979 162.269 54.058 162.458C54.137 162.644 54.2332 162.796 54.3465 162.917C54.4599 163.037 54.5904 163.126 54.738 163.184C54.8891 163.239 55.0557 163.267 55.2377 163.267C55.4713 163.267 55.6756 163.222 55.8508 163.133C56.0259 163.044 56.1719 162.905 56.2886 162.716C56.4088 162.523 56.4981 162.278 56.5565 161.979C56.6149 161.677 56.6441 161.316 56.6441 160.897ZM63.5368 159.599V160.743C63.5368 161.357 63.4819 161.876 63.372 162.298C63.2621 162.721 63.1041 163.061 62.898 163.318C62.692 163.576 62.443 163.763 62.151 163.88C61.8626 163.993 61.5363 164.05 61.1723 164.05C60.8838 164.05 60.6176 164.014 60.3738 163.942C60.1299 163.87 59.9101 163.755 59.7144 163.597C59.5221 163.435 59.3572 163.226 59.2198 162.968C59.0825 162.711 58.9777 162.398 58.9056 162.031C58.8335 161.663 58.7974 161.234 58.7974 160.743V159.599C58.7974 158.984 58.8524 158.469 58.9623 158.054C59.0756 157.638 59.2353 157.305 59.4414 157.054C59.6474 156.8 59.8947 156.618 60.1832 156.508C60.4751 156.398 60.8014 156.343 61.162 156.343C61.4539 156.343 61.7218 156.379 61.9656 156.451C62.2129 156.52 62.4327 156.632 62.625 156.786C62.8173 156.937 62.9804 157.14 63.1144 157.394C63.2518 157.645 63.3565 157.952 63.4286 158.316C63.5007 158.68 63.5368 159.108 63.5368 159.599ZM62.5786 160.897V159.439C62.5786 159.103 62.558 158.807 62.5168 158.553C62.479 158.296 62.4224 158.076 62.3468 157.894C62.2713 157.712 62.1751 157.564 62.0583 157.451C61.945 157.338 61.8128 157.255 61.6617 157.204C61.514 157.149 61.3474 157.121 61.162 157.121C60.9353 157.121 60.7344 157.164 60.5592 157.25C60.3841 157.332 60.2364 157.465 60.1162 157.647C59.9994 157.829 59.9101 158.067 59.8483 158.363C59.7865 158.658 59.7556 159.017 59.7556 159.439V160.897C59.7556 161.234 59.7745 161.531 59.8123 161.788C59.8535 162.046 59.9136 162.269 59.9926 162.458C60.0716 162.644 60.1677 162.796 60.2811 162.917C60.3944 163.037 60.5249 163.126 60.6726 163.184C60.8237 163.239 60.9902 163.267 61.1723 163.267C61.4058 163.267 61.6101 163.222 61.7853 163.133C61.9604 163.044 62.1064 162.905 62.2232 162.716C62.3434 162.523 62.4327 162.278 62.491 161.979C62.5494 161.677 62.5786 161.316 62.5786 160.897ZM69.4713 159.599V160.743C69.4713 161.357 69.4164 161.876 69.3065 162.298C69.1966 162.721 69.0386 163.061 68.8325 163.318C68.6265 163.576 68.3775 163.763 68.0856 163.88C67.7971 163.993 67.4708 164.05 67.1068 164.05C66.8183 164.05 66.5522 164.014 66.3083 163.942C66.0645 163.87 65.8447 163.755 65.6489 163.597C65.4566 163.435 65.2917 163.226 65.1544 162.968C65.017 162.711 64.9123 162.398 64.8401 162.031C64.768 161.663 64.732 161.234 64.732 160.743V159.599C64.732 158.984 64.7869 158.469 64.8968 158.054C65.0101 157.638 65.1698 157.305 65.3759 157.054C65.582 156.8 65.8292 156.618 66.1177 156.508C66.4096 156.398 66.7359 156.343 67.0965 156.343C67.3884 156.343 67.6563 156.379 67.9001 156.451C68.1474 156.52 68.3672 156.632 68.5595 156.786C68.7518 156.937 68.915 157.14 69.0489 157.394C69.1863 157.645 69.291 157.952 69.3632 158.316C69.4353 158.68 69.4713 159.108 69.4713 159.599ZM68.5132 160.897V159.439C68.5132 159.103 68.4925 158.807 68.4513 158.553C68.4136 158.296 68.3569 158.076 68.2813 157.894C68.2058 157.712 68.1096 157.564 67.9929 157.451C67.8795 157.338 67.7473 157.255 67.5962 157.204C67.4485 157.149 67.2819 157.121 67.0965 157.121C66.8698 157.121 66.6689 157.164 66.4938 157.25C66.3186 157.332 66.1709 157.465 66.0507 157.647C65.934 157.829 65.8447 158.067 65.7829 158.363C65.721 158.658 65.6901 159.017 65.6901 159.439V160.897C65.6901 161.234 65.709 161.531 65.7468 161.788C65.788 162.046 65.8481 162.269 65.9271 162.458C66.0061 162.644 66.1023 162.796 66.2156 162.917C66.3289 163.037 66.4594 163.126 66.6071 163.184C66.7582 163.239 66.9248 163.267 67.1068 163.267C67.3403 163.267 67.5447 163.222 67.7198 163.133C67.895 163.044 68.0409 162.905 68.1577 162.716C68.2779 162.523 68.3672 162.278 68.4256 161.979C68.484 161.677 68.5132 161.316 68.5132 160.897Z" fill="#0E0F16"/>
<path d="M413.482 266.029V266.812H408.573V266.127L411.03 263.392C411.332 263.055 411.566 262.77 411.73 262.536C411.899 262.299 412.015 262.088 412.081 261.903C412.149 261.714 412.184 261.522 412.184 261.326C412.184 261.079 412.132 260.855 412.029 260.656C411.93 260.453 411.782 260.292 411.586 260.172C411.39 260.052 411.153 259.992 410.875 259.992C410.542 259.992 410.264 260.057 410.041 260.187C409.821 260.314 409.656 260.493 409.546 260.723C409.436 260.953 409.381 261.218 409.381 261.516H408.428C408.428 261.094 408.521 260.708 408.707 260.357C408.892 260.007 409.167 259.729 409.531 259.523C409.895 259.313 410.343 259.209 410.875 259.209C411.349 259.209 411.754 259.293 412.091 259.461C412.428 259.626 412.685 259.859 412.864 260.162C413.046 260.46 413.137 260.811 413.137 261.212C413.137 261.432 413.099 261.655 413.023 261.882C412.951 262.105 412.85 262.329 412.72 262.552C412.592 262.775 412.443 262.995 412.271 263.211C412.103 263.428 411.923 263.641 411.73 263.85L409.721 266.029H413.482ZM419.21 262.464V263.608C419.21 264.223 419.155 264.741 419.046 265.164C418.936 265.586 418.778 265.926 418.572 266.184C418.366 266.441 418.117 266.628 417.825 266.745C417.536 266.858 417.21 266.915 416.846 266.915C416.557 266.915 416.291 266.879 416.047 266.807C415.804 266.735 415.584 266.62 415.388 266.462C415.196 266.3 415.031 266.091 414.893 265.833C414.756 265.576 414.651 265.263 414.579 264.896C414.507 264.528 414.471 264.099 414.471 263.608V262.464C414.471 261.85 414.526 261.334 414.636 260.919C414.749 260.503 414.909 260.17 415.115 259.919C415.321 259.665 415.568 259.483 415.857 259.373C416.149 259.263 416.475 259.209 416.836 259.209C417.128 259.209 417.395 259.245 417.639 259.317C417.886 259.385 418.106 259.497 418.299 259.652C418.491 259.803 418.654 260.005 418.788 260.259C418.925 260.51 419.03 260.818 419.102 261.182C419.174 261.546 419.21 261.973 419.21 262.464ZM418.252 263.762V262.305C418.252 261.968 418.232 261.673 418.19 261.419C418.153 261.161 418.096 260.941 418.02 260.759C417.945 260.577 417.849 260.429 417.732 260.316C417.619 260.203 417.486 260.12 417.335 260.069C417.188 260.014 417.021 259.986 416.836 259.986C416.609 259.986 416.408 260.029 416.233 260.115C416.058 260.198 415.91 260.33 415.79 260.512C415.673 260.694 415.584 260.933 415.522 261.228C415.46 261.523 415.429 261.882 415.429 262.305V263.762C415.429 264.099 415.448 264.396 415.486 264.654C415.527 264.911 415.587 265.134 415.666 265.323C415.745 265.509 415.841 265.662 415.955 265.782C416.068 265.902 416.199 265.991 416.346 266.05C416.497 266.105 416.664 266.132 416.846 266.132C417.079 266.132 417.284 266.087 417.459 265.998C417.634 265.909 417.78 265.77 417.897 265.581C418.017 265.389 418.106 265.143 418.165 264.844C418.223 264.542 418.252 264.181 418.252 263.762ZM425.351 266.029V266.812H420.442V266.127L422.899 263.392C423.201 263.055 423.435 262.77 423.6 262.536C423.768 262.299 423.885 262.088 423.95 261.903C424.018 261.714 424.053 261.522 424.053 261.326C424.053 261.079 424.001 260.855 423.898 260.656C423.799 260.453 423.651 260.292 423.455 260.172C423.26 260.052 423.023 259.992 422.744 259.992C422.411 259.992 422.133 260.057 421.91 260.187C421.69 260.314 421.525 260.493 421.415 260.723C421.305 260.953 421.25 261.218 421.25 261.516H420.297C420.297 261.094 420.39 260.708 420.576 260.357C420.761 260.007 421.036 259.729 421.4 259.523C421.764 259.313 422.212 259.209 422.744 259.209C423.218 259.209 423.624 259.293 423.96 259.461C424.297 259.626 424.554 259.859 424.733 260.162C424.915 260.46 425.006 260.811 425.006 261.212C425.006 261.432 424.968 261.655 424.893 261.882C424.82 262.105 424.719 262.329 424.589 262.552C424.462 262.775 424.312 262.995 424.14 263.211C423.972 263.428 423.792 263.641 423.6 263.85L421.59 266.029H425.351ZM427.762 262.593H428.442C428.775 262.593 429.05 262.538 429.266 262.428C429.486 262.315 429.649 262.162 429.756 261.97C429.865 261.774 429.92 261.554 429.92 261.31C429.92 261.022 429.872 260.78 429.776 260.584C429.68 260.388 429.536 260.241 429.343 260.141C429.151 260.041 428.907 259.992 428.612 259.992C428.344 259.992 428.107 260.045 427.901 260.151C427.698 260.254 427.539 260.402 427.422 260.594C427.309 260.787 427.252 261.013 427.252 261.274H426.299C426.299 260.893 426.395 260.546 426.587 260.234C426.78 259.921 427.049 259.672 427.396 259.487C427.746 259.301 428.152 259.209 428.612 259.209C429.065 259.209 429.462 259.289 429.802 259.451C430.142 259.609 430.406 259.846 430.595 260.162C430.784 260.474 430.879 260.864 430.879 261.331C430.879 261.52 430.834 261.722 430.745 261.939C430.659 262.152 430.523 262.351 430.338 262.536C430.156 262.722 429.919 262.875 429.627 262.995C429.335 263.112 428.985 263.17 428.576 263.17H427.762V262.593ZM427.762 263.376V262.804H428.576C429.053 262.804 429.448 262.861 429.761 262.974C430.073 263.088 430.319 263.239 430.497 263.428C430.679 263.616 430.806 263.824 430.879 264.051C430.954 264.274 430.992 264.497 430.992 264.721C430.992 265.071 430.932 265.382 430.812 265.653C430.695 265.924 430.528 266.154 430.312 266.343C430.099 266.532 429.848 266.675 429.56 266.771C429.271 266.867 428.957 266.915 428.617 266.915C428.291 266.915 427.983 266.869 427.695 266.776C427.41 266.683 427.157 266.549 426.938 266.374C426.718 266.196 426.546 265.978 426.423 265.72C426.299 265.459 426.237 265.162 426.237 264.829H427.19C427.19 265.09 427.247 265.318 427.36 265.514C427.477 265.71 427.642 265.863 427.855 265.972C428.071 266.079 428.325 266.132 428.617 266.132C428.909 266.132 429.16 266.082 429.369 265.983C429.582 265.88 429.745 265.725 429.859 265.519C429.975 265.313 430.034 265.054 430.034 264.741C430.034 264.429 429.968 264.173 429.838 263.974C429.707 263.771 429.522 263.622 429.282 263.525C429.045 263.426 428.765 263.376 428.442 263.376H427.762Z" fill="#0E0F16"/>
<path d="M477.663 266.029V266.812H472.753V266.127L475.211 263.392C475.513 263.055 475.747 262.77 475.911 262.536C476.08 262.299 476.196 262.088 476.262 261.903C476.33 261.714 476.365 261.522 476.365 261.326C476.365 261.079 476.313 260.855 476.21 260.656C476.111 260.453 475.963 260.292 475.767 260.172C475.571 260.052 475.334 259.992 475.056 259.992C474.723 259.992 474.445 260.057 474.222 260.187C474.002 260.314 473.837 260.493 473.727 260.723C473.617 260.953 473.562 261.218 473.562 261.516H472.609C472.609 261.094 472.702 260.708 472.887 260.357C473.073 260.007 473.348 259.729 473.712 259.523C474.076 259.313 474.524 259.209 475.056 259.209C475.53 259.209 475.935 259.293 476.272 259.461C476.609 259.626 476.866 259.859 477.045 260.162C477.227 260.46 477.318 260.811 477.318 261.212C477.318 261.432 477.28 261.655 477.204 261.882C477.132 262.105 477.031 262.329 476.9 262.552C476.773 262.775 476.624 262.995 476.452 263.211C476.284 263.428 476.104 263.641 475.911 263.85L473.902 266.029H477.663ZM483.391 262.464V263.608C483.391 264.223 483.336 264.741 483.226 265.164C483.117 265.586 482.959 265.926 482.753 266.184C482.546 266.441 482.297 266.628 482.006 266.745C481.717 266.858 481.391 266.915 481.027 266.915C480.738 266.915 480.472 266.879 480.228 266.807C479.984 266.735 479.765 266.62 479.569 266.462C479.377 266.3 479.212 266.091 479.074 265.833C478.937 265.576 478.832 265.263 478.76 264.896C478.688 264.528 478.652 264.099 478.652 263.608V262.464C478.652 261.85 478.707 261.334 478.817 260.919C478.93 260.503 479.09 260.17 479.296 259.919C479.502 259.665 479.749 259.483 480.038 259.373C480.33 259.263 480.656 259.209 481.016 259.209C481.308 259.209 481.576 259.245 481.82 259.317C482.067 259.385 482.287 259.497 482.48 259.652C482.672 259.803 482.835 260.005 482.969 260.259C483.106 260.51 483.211 260.818 483.283 261.182C483.355 261.546 483.391 261.973 483.391 262.464ZM482.433 263.762V262.305C482.433 261.968 482.413 261.673 482.371 261.419C482.334 261.161 482.277 260.941 482.201 260.759C482.126 260.577 482.03 260.429 481.913 260.316C481.8 260.203 481.667 260.12 481.516 260.069C481.369 260.014 481.202 259.986 481.016 259.986C480.79 259.986 480.589 260.029 480.414 260.115C480.239 260.198 480.091 260.33 479.971 260.512C479.854 260.694 479.765 260.933 479.703 261.228C479.641 261.523 479.61 261.882 479.61 262.305V263.762C479.61 264.099 479.629 264.396 479.667 264.654C479.708 264.911 479.768 265.134 479.847 265.323C479.926 265.509 480.022 265.662 480.136 265.782C480.249 265.902 480.379 265.991 480.527 266.05C480.678 266.105 480.845 266.132 481.027 266.132C481.26 266.132 481.465 266.087 481.64 265.998C481.815 265.909 481.961 265.77 482.078 265.581C482.198 265.389 482.287 265.143 482.346 264.844C482.404 264.542 482.433 264.181 482.433 263.762ZM489.532 266.029V266.812H484.623V266.127L487.08 263.392C487.382 263.055 487.616 262.77 487.78 262.536C487.949 262.299 488.065 262.088 488.131 261.903C488.199 261.714 488.234 261.522 488.234 261.326C488.234 261.079 488.182 260.855 488.079 260.656C487.98 260.453 487.832 260.292 487.636 260.172C487.44 260.052 487.203 259.992 486.925 259.992C486.592 259.992 486.314 260.057 486.091 260.187C485.871 260.314 485.706 260.493 485.596 260.723C485.486 260.953 485.431 261.218 485.431 261.516H484.478C484.478 261.094 484.571 260.708 484.756 260.357C484.942 260.007 485.217 259.729 485.581 259.523C485.945 259.313 486.393 259.209 486.925 259.209C487.399 259.209 487.804 259.293 488.141 259.461C488.478 259.626 488.735 259.859 488.914 260.162C489.096 260.46 489.187 260.811 489.187 261.212C489.187 261.432 489.149 261.655 489.073 261.882C489.001 262.105 488.9 262.329 488.77 262.552C488.642 262.775 488.493 262.995 488.321 263.211C488.153 263.428 487.973 263.641 487.78 263.85L485.771 266.029H489.532ZM495.621 264.288V265.071H490.202V264.509L493.56 259.312H494.338L493.504 260.816L491.283 264.288H495.621ZM494.575 259.312V266.812H493.622V259.312H494.575Z" fill="#0E0F16"/>
</svg>
